<svg width="54" height="28" viewBox="0 0 54 28" fill="none" xmlns="http://www.w3.org/2000/svg">
<path d="M38.2606 3.50928C43.1487 5.54912 47.9033 8.8182 52.2465 13.2636C39.7283 30.6308 13.8702 31.2965 1.24646 14.8702C5.46917 9.0117 10.5456 5.05482 16.0224 2.91318M38.2606 3.50928C40.7228 7.52451 41.0841 12.8616 38.207 17.6847C34.0409 24.6686 25.4276 25.5369 19.4335 21.323C13.4393 17.1091 11.8809 10.732 15.3677 4.02242C15.5683 3.63641 15.7871 3.26663 16.0224 2.91318M38.2606 3.50928C30.8311 0.408877 23.0931 0.148232 16.0224 2.91318M31.6622 13.4446L29.0779 10.0651L30.3104 5.93014L26.8514 9.23015L22.793 8.13277L25.1815 11.0193L23.4321 16.1482L27.7261 12.5699L31.6622 13.4446Z" stroke="#4639DB" stroke-width="2"/>
</svg>
