<svg width="25" height="32" viewBox="0 0 25 32" fill="none" xmlns="http://www.w3.org/2000/svg">
<path d="M16.3332 13.751C15.0285 13.8334 13.7855 14.1209 13.0717 14.4778C12.487 14.7702 12.0427 15.1608 11.736 15.5985M16.3332 13.751C17.8718 13.751 19.6858 13.946 21.1607 14.4778M16.3332 13.751C16.3332 12.7174 16.3303 12.0912 16.2705 11.4449M11.3202 11.7921L11.736 15.5985M11.3202 11.7921C11.0088 7.80897 15.9328 7.79495 16.2705 11.4449M11.3202 11.7921C10.6282 9.53698 7.91778 9.15561 6.82766 10.8704M20.2728 19.806H17.6237M14.2503 24.5743C14.3672 22.5445 15.4806 19.806 17.6237 19.806M17.6237 19.806C15.6844 19.806 12.2151 20.3355 11.3711 18.0396M11.736 15.5985C11.2026 16.3597 11.0857 17.2633 11.3711 18.0396M11.3711 18.0396C10.318 19.3737 7.99046 18.8296 7.35652 17.3934C6.72257 15.9572 6.54271 14.1035 6.39936 12.9636C6.29444 12.1293 6.47743 11.4213 6.82766 10.8704M21.1607 14.4778C23.3274 15.2591 24.4752 16.6856 24.1081 19.806C23.3022 26.6567 19.7436 30.75 12.8141 30.75C1.18723 30.75 1.03724 14.0901 0.75 6.04738C0.75 2.6005 5.15935 2.3252 5.88571 4.91036C6.20549 5.97923 6.6772 9.07791 6.82766 10.8704M21.1607 14.4778C22.138 10.1197 22.6467 6.24917 22.7794 3.37394C22.9121 0.498715 18.8461 -0.559141 17.8408 3.03136C17.1987 5.3245 16.6112 9.05114 16.2705 11.4449" stroke="#FF0000" stroke-width="1.5"/>
</svg>
