<svg width="22" height="23" viewBox="0 0 22 23" fill="none" xmlns="http://www.w3.org/2000/svg">
<path d="M11 22.2012C9.48893 22.2012 8.07096 21.9147 6.74609 21.3418C5.42122 20.776 4.25749 19.9919 3.25488 18.9893C2.25228 17.9867 1.46452 16.8229 0.891602 15.498C0.325846 14.1732 0.0429688 12.7552 0.0429688 11.2441C0.0429688 9.73307 0.325846 8.3151 0.891602 6.99023C1.46452 5.66536 2.25228 4.50163 3.25488 3.49902C4.25749 2.48926 5.42122 1.7015 6.74609 1.13574C8.07096 0.569987 9.48893 0.287109 11 0.287109C12.5111 0.287109 13.929 0.569987 15.2539 1.13574C16.5788 1.7015 17.7425 2.48926 18.7451 3.49902C19.7477 4.50163 20.5319 5.66536 21.0977 6.99023C21.6706 8.3151 21.957 9.73307 21.957 11.2441C21.957 12.7552 21.6706 14.1732 21.0977 15.498C20.5319 16.8229 19.7477 17.9867 18.7451 18.9893C17.7425 19.9919 16.5788 20.776 15.2539 21.3418C13.929 21.9147 12.5111 22.2012 11 22.2012ZM11 20.375C12.2604 20.375 13.4421 20.1387 14.5449 19.666C15.6478 19.1934 16.6182 18.5381 17.4561 17.7002C18.2939 16.8623 18.9492 15.8919 19.4219 14.7891C19.8945 13.6862 20.1309 12.5046 20.1309 11.2441C20.1309 9.98372 19.8945 8.80208 19.4219 7.69922C18.9492 6.58919 18.2939 5.61882 17.4561 4.78809C16.6182 3.9502 15.6478 3.29492 14.5449 2.82227C13.4421 2.34961 12.2604 2.11328 11 2.11328C9.73958 2.11328 8.55794 2.34961 7.45508 2.82227C6.35221 3.29492 5.38184 3.9502 4.54395 4.78809C3.70605 5.61882 3.05078 6.58919 2.57812 7.69922C2.10547 8.80208 1.86914 9.98372 1.86914 11.2441C1.86914 12.5046 2.10547 13.6862 2.57812 14.7891C3.05078 15.8919 3.70605 16.8623 4.54395 17.7002C5.38184 18.5381 6.35221 19.1934 7.45508 19.666C8.55794 20.1387 9.73958 20.375 11 20.375ZM8.99121 15.4443C8.8265 15.5446 8.66178 15.5876 8.49707 15.5732C8.33236 15.5589 8.19271 15.5016 8.07812 15.4014C7.9707 15.2939 7.91699 15.1543 7.91699 14.9824V7.5166C7.91699 7.34473 7.97428 7.20866 8.08887 7.1084C8.20345 7.00814 8.3431 6.95443 8.50781 6.94727C8.67969 6.93294 8.84082 6.96875 8.99121 7.05469L15.1143 10.6855C15.2575 10.7715 15.3542 10.8896 15.4043 11.04C15.4544 11.1833 15.4544 11.3301 15.4043 11.4805C15.3613 11.6237 15.2646 11.7419 15.1143 11.835L8.99121 15.4443Z" fill="white"/>
</svg>
