<svg width="20" height="19" viewBox="0 0 20 19" fill="none" xmlns="http://www.w3.org/2000/svg">
<path d="M10.2812 15.8181C9.8125 15.8181 9.45801 15.698 9.21777 15.4578C8.97754 15.2175 8.81055 14.9158 8.7168 14.5525C8.62891 14.1833 8.5791 13.7996 8.56738 13.4011C8.56152 13.0027 8.55859 12.6453 8.55859 12.3289C8.55859 11.9421 8.4209 11.6228 8.14551 11.3708C7.87598 11.1189 7.53027 10.9929 7.1084 10.9929C6.37012 10.9929 5.7959 10.7937 5.38574 10.3953C4.98145 9.99097 4.7793 9.4314 4.7793 8.71655C4.7793 8.17163 4.9375 7.67651 5.25391 7.2312C5.57617 6.78003 6.00684 6.42261 6.5459 6.15894C7.08496 5.8894 7.67969 5.75464 8.33008 5.75464C8.61719 5.75464 8.9043 5.78687 9.19141 5.85132C9.47852 5.91577 9.7334 5.98022 9.95605 6.04468C10.1787 6.10327 10.3428 6.13257 10.4482 6.13257C10.5537 6.13257 10.6387 6.07983 10.7031 5.97437C10.7734 5.86304 10.8086 5.72827 10.8086 5.57007C10.8086 5.4646 10.7559 5.33862 10.6504 5.19214C10.5449 5.03979 10.4102 4.90796 10.2461 4.79663C10.082 4.67944 9.90918 4.62085 9.72754 4.62085C9.66895 4.62085 9.62207 4.63843 9.58691 4.67358C9.55762 4.70288 9.53418 4.74683 9.5166 4.80542C9.49902 4.94019 9.45215 5.03979 9.37598 5.10425C9.2998 5.1687 9.20312 5.20093 9.08594 5.20093C8.86914 5.20093 8.69043 5.15698 8.5498 5.06909C8.40918 4.9812 8.2832 4.89331 8.17188 4.80542C8.06055 4.71753 7.95215 4.67358 7.84668 4.67358C7.72949 4.67358 7.62109 4.72632 7.52148 4.83179C7.42188 4.9314 7.31348 5.04858 7.19629 5.18335C7.08496 5.31226 6.95312 5.42944 6.80078 5.53491C6.64844 5.63452 6.46094 5.68433 6.23828 5.68433C6.00977 5.68433 5.82812 5.6228 5.69336 5.49976C5.55859 5.37671 5.49121 5.20972 5.49121 4.99878C5.49121 4.81128 5.53516 4.64429 5.62305 4.4978C5.7168 4.34546 5.82227 4.19312 5.93945 4.04077C6.0625 3.88257 6.16797 3.698 6.25586 3.48706C6.34961 3.27612 6.39648 3.01245 6.39648 2.69604C6.39648 2.32104 6.52539 1.97827 6.7832 1.66772C7.04102 1.35132 7.43359 1.09937 7.96094 0.911865C8.49414 0.724365 9.1709 0.627686 9.99121 0.621826C11.1924 0.621826 12.3203 0.853271 13.375 1.31616C14.4355 1.77319 15.3643 2.40601 16.1611 3.2146C16.9639 4.01733 17.5908 4.94604 18.042 6.00073C18.499 7.04956 18.7275 8.1687 18.7275 9.35815C18.7275 9.80933 18.6396 10.199 18.4639 10.5271C18.2881 10.8552 18.0801 11.1072 17.8398 11.283C17.4414 11.0662 17.1221 10.7732 16.8818 10.4041C16.6416 10.0349 16.4541 9.66284 16.3193 9.28784C16.1846 8.90698 16.0703 8.58765 15.9766 8.32983C15.8887 8.06616 15.7949 7.93433 15.6953 7.93433C15.6309 7.93433 15.584 7.96655 15.5547 8.03101C15.5254 8.09546 15.4844 8.15991 15.4316 8.22437C15.3848 8.28882 15.3057 8.32104 15.1943 8.32104C15.0654 8.32104 14.916 8.25659 14.7461 8.12769C14.5762 7.99292 14.4004 7.83765 14.2188 7.66187C14.0371 7.48608 13.8672 7.33374 13.709 7.20483C13.5508 7.07007 13.4248 7.00269 13.3311 7.00269C13.2432 7.00269 13.1553 7.05542 13.0674 7.16089C12.9854 7.26636 12.9443 7.37476 12.9443 7.48608C12.9443 7.60327 13.0322 7.72925 13.208 7.86401C13.3896 7.99292 13.5977 8.13354 13.832 8.28589C14.0664 8.43237 14.2715 8.58765 14.4473 8.75171C14.6289 8.90991 14.7197 9.07397 14.7197 9.2439C14.7197 9.49585 14.6436 9.73315 14.4912 9.95581C14.3389 10.1785 14.1865 10.3748 14.0342 10.5447C13.8877 10.7087 13.8145 10.8376 13.8145 10.9314C13.8145 11.1423 13.8291 11.4148 13.8584 11.7488C13.8936 12.0769 13.7998 12.4255 13.5771 12.7947C13.4893 12.9353 13.3428 13.1697 13.1377 13.4978C12.9385 13.8201 12.6924 14.1599 12.3994 14.5173C12.1064 14.8748 11.7783 15.1824 11.415 15.4402C11.0576 15.6921 10.6797 15.8181 10.2812 15.8181ZM12.6016 4.37476C12.6777 4.37476 12.7598 4.40405 12.8477 4.46265C12.9355 4.51538 13.0615 4.54175 13.2256 4.54175C13.3369 4.54175 13.4307 4.4978 13.5068 4.40991C13.583 4.31616 13.6211 4.20483 13.6211 4.07593C13.6211 3.85913 13.5186 3.67749 13.3135 3.53101C13.1084 3.38452 12.8506 3.31128 12.54 3.31128C12.1768 3.31128 11.8955 3.3728 11.6963 3.49585C11.4971 3.61304 11.3975 3.78296 11.3975 4.00562C11.3975 4.1521 11.4473 4.27515 11.5469 4.37476C11.6465 4.47437 11.7725 4.52417 11.9248 4.52417C12.0771 4.52417 12.1943 4.50073 12.2764 4.45386C12.3643 4.40112 12.4727 4.37476 12.6016 4.37476ZM9.99121 18.6394C8.71387 18.6394 7.5127 18.3962 6.3877 17.9099C5.26855 17.4294 4.28418 16.7644 3.43457 15.9148C2.58496 15.0652 1.91699 14.0808 1.43066 12.9617C0.950195 11.8367 0.709961 10.6355 0.709961 9.35815C0.709961 8.07495 0.950195 6.87378 1.43066 5.75464C1.91699 4.62964 2.58496 3.64233 3.43457 2.79272C4.28418 1.93726 5.26855 1.27222 6.3877 0.797607C7.5127 0.317139 8.71387 0.0769043 9.99121 0.0769043C11.2744 0.0769043 12.4756 0.317139 13.5947 0.797607C14.7197 1.27222 15.707 1.93726 16.5566 2.79272C17.4062 3.64233 18.0713 4.62964 18.5518 5.75464C19.0381 6.87378 19.2812 8.07495 19.2812 9.35815C19.2812 10.6355 19.0381 11.8367 18.5518 12.9617C18.0713 14.0808 17.4062 15.0652 16.5566 15.9148C15.707 16.7644 14.7197 17.4294 13.5947 17.9099C12.4756 18.3962 11.2744 18.6394 9.99121 18.6394ZM9.99121 16.8552C11.0283 16.8552 11.998 16.6589 12.9004 16.2664C13.8086 15.8796 14.6055 15.3435 15.291 14.658C15.9824 13.9666 16.5215 13.1697 16.9082 12.2673C17.2949 11.3591 17.4883 10.3894 17.4883 9.35815C17.4883 8.32104 17.2949 7.35132 16.9082 6.44897C16.5215 5.54077 15.9824 4.7439 15.291 4.05835C14.6055 3.36694 13.8086 2.82788 12.9004 2.44116C11.998 2.05444 11.0283 1.86108 9.99121 1.86108C8.95996 1.86108 7.99023 2.05444 7.08203 2.44116C6.17969 2.82788 5.38281 3.36694 4.69141 4.05835C4.00586 4.7439 3.46973 5.54077 3.08301 6.44897C2.69629 7.35132 2.50293 8.32104 2.50293 9.35815C2.50293 10.3894 2.69629 11.3591 3.08301 12.2673C3.46973 13.1697 4.00586 13.9666 4.69141 14.658C5.38281 15.3435 6.17969 15.8796 7.08203 16.2664C7.99023 16.6589 8.95996 16.8552 9.99121 16.8552Z" fill="#F4A3CB"/>
</svg>
