<svg width="25" height="25" viewBox="0 0 25 25" fill="none" xmlns="http://www.w3.org/2000/svg">
<rect x="0.855103" y="0.173004" width="24" height="24" rx="12" fill="#FF2D55" fill-opacity="0.15"/>
<path d="M7.64612 10.8058C7.64612 10.6457 7.69299 10.5187 7.78674 10.425C7.88049 10.3312 8.01135 10.2843 8.17932 10.2843H9.1637V9.32925C9.1637 9.16519 9.21057 9.03629 9.30432 8.94254C9.39807 8.84488 9.52307 8.79605 9.67932 8.79605C9.83948 8.79605 9.96448 8.84488 10.0543 8.94254C10.1481 9.03629 10.1949 9.16519 10.1949 9.32925V10.2843H11.1266C11.3024 10.2843 11.441 10.3312 11.5426 10.425C11.6442 10.5187 11.6949 10.6457 11.6949 10.8058C11.6949 10.966 11.6442 11.0949 11.5426 11.1925C11.441 11.2863 11.3024 11.3332 11.1266 11.3332H10.1949V12.2882C10.1949 12.4523 10.1481 12.5832 10.0543 12.6808C9.96448 12.7785 9.83948 12.8273 9.67932 12.8273C9.52307 12.8273 9.39807 12.7785 9.30432 12.6808C9.21057 12.5832 9.1637 12.4523 9.1637 12.2882V11.3332H8.17932C8.01135 11.3332 7.88049 11.2863 7.78674 11.1925C7.69299 11.0949 7.64612 10.966 7.64612 10.8058ZM16.0836 10.7589C15.8414 10.7589 15.6344 10.675 15.4625 10.507C15.2946 10.339 15.2106 10.1339 15.2106 9.89175C15.2106 9.64566 15.2946 9.43863 15.4625 9.27066C15.6344 9.09879 15.8414 9.01285 16.0836 9.01285C16.3258 9.01285 16.5328 9.09879 16.7047 9.27066C16.8766 9.43863 16.9625 9.64566 16.9625 9.89175C16.9625 10.1339 16.8766 10.339 16.7047 10.507C16.5328 10.675 16.3258 10.7589 16.0836 10.7589ZM14.3434 12.5168C14.1051 12.5168 13.9 12.4328 13.7281 12.2648C13.5563 12.0929 13.4703 11.8878 13.4703 11.6496C13.4703 11.4074 13.5563 11.2003 13.7281 11.0285C13.9 10.8566 14.1051 10.7707 14.3434 10.7707C14.5856 10.7707 14.7926 10.8566 14.9645 11.0285C15.1364 11.2003 15.2223 11.4074 15.2223 11.6496C15.2223 11.8878 15.1364 12.0929 14.9645 12.2648C14.7926 12.4328 14.5856 12.5168 14.3434 12.5168ZM3.84924 15.0304C3.84924 14.7257 3.88049 14.3996 3.94299 14.0519C4.0094 13.7043 4.1012 13.3371 4.21838 12.9503C4.33557 12.548 4.4801 12.1105 4.65198 11.6378C4.82385 11.1613 5.00745 10.6828 5.20276 10.2023C5.40198 9.71793 5.6012 9.2648 5.80042 8.84293C5.96838 8.48746 6.12854 8.18863 6.28088 7.94644C6.43713 7.70425 6.6344 7.50504 6.87268 7.34879C7.11096 7.19254 7.44299 7.06558 7.86877 6.96793C8.43518 6.83902 9.1012 6.73746 9.86682 6.66324C10.6324 6.58511 11.486 6.54605 12.4274 6.54605C13.3688 6.54605 14.2223 6.58511 14.9879 6.66324C15.7535 6.73746 16.4176 6.83902 16.9801 6.96793C17.4098 7.06558 17.7438 7.19254 17.9821 7.34879C18.2203 7.50504 18.4156 7.70425 18.568 7.94644C18.7203 8.18863 18.8824 8.48746 19.0543 8.84293C19.2535 9.2648 19.4508 9.71793 19.6461 10.2023C19.8453 10.6828 20.0309 11.1613 20.2028 11.6378C20.3746 12.1105 20.5192 12.548 20.6364 12.9503C20.7535 13.3371 20.8434 13.7043 20.9059 14.0519C20.9723 14.3996 21.0055 14.7257 21.0055 15.0304C21.0055 15.507 20.9078 15.9191 20.7125 16.2668C20.5211 16.6144 20.2516 16.882 19.9039 17.0695C19.5602 17.257 19.1637 17.3507 18.7145 17.3507C18.3317 17.3507 17.9703 17.2707 17.6305 17.1105C17.2946 16.9503 16.9957 16.7179 16.734 16.4132L15.691 15.2003C15.6129 15.1105 15.5348 15.0461 15.4567 15.007C15.3785 14.9679 15.2946 14.9484 15.2047 14.9484H9.65002C9.56018 14.9484 9.4762 14.9679 9.39807 15.007C9.31995 15.0461 9.24182 15.1105 9.1637 15.2003L8.12073 16.4132C7.85901 16.7218 7.55823 16.9543 7.21838 17.1105C6.88245 17.2707 6.52307 17.3507 6.14026 17.3507C5.68713 17.3507 5.2887 17.257 4.94495 17.0695C4.6012 16.882 4.33167 16.6144 4.13635 16.2668C3.94495 15.9191 3.84924 15.507 3.84924 15.0304ZM4.93323 15.0246C4.93323 15.4035 5.05042 15.7023 5.28479 15.9211C5.51917 16.1398 5.81213 16.2492 6.1637 16.2492C6.37463 16.2492 6.58167 16.1964 6.78479 16.091C6.98792 15.9855 7.17346 15.8351 7.34143 15.6398L8.50745 14.3039C8.65198 14.1359 8.79651 14.0128 8.94104 13.9347C9.08557 13.8527 9.28479 13.8117 9.5387 13.8117H15.3102C15.5641 13.8117 15.7633 13.8527 15.9078 13.9347C16.0563 14.0128 16.2028 14.1359 16.3473 14.3039L17.5133 15.6398C17.8649 16.0461 18.2555 16.2492 18.6852 16.2492C19.0367 16.2492 19.3297 16.1398 19.5641 15.9211C19.8024 15.7023 19.9215 15.4035 19.9215 15.0246C19.9215 14.8488 19.9 14.6476 19.8571 14.4211C19.8141 14.1945 19.7477 13.9269 19.6578 13.6183C19.5211 13.1652 19.361 12.6828 19.1774 12.1711C18.9977 11.6554 18.8063 11.1437 18.6031 10.6359C18.4 10.1281 18.1969 9.65933 17.9938 9.22964C17.8961 9.02652 17.8043 8.85074 17.7184 8.7023C17.6364 8.54996 17.5289 8.42496 17.3961 8.3273C17.2672 8.22964 17.0875 8.15347 16.8571 8.09879C16.318 7.96988 15.6754 7.86832 14.9293 7.7941C14.1832 7.71597 13.3492 7.67691 12.4274 7.67691C11.5055 7.67691 10.6715 7.71597 9.92542 7.7941C9.17932 7.86832 8.53674 7.96988 7.99768 8.09879C7.76331 8.15347 7.57971 8.22964 7.4469 8.3273C7.31799 8.42496 7.21057 8.54996 7.12463 8.7023C7.0387 8.85074 6.95081 9.02652 6.86096 9.22964C6.66565 9.65933 6.46448 10.1281 6.25745 10.6359C6.05042 11.1437 5.8551 11.6554 5.67151 12.1711C5.48792 12.6828 5.32971 13.1652 5.1969 13.6183C5.10706 13.9269 5.04065 14.1945 4.99768 14.4211C4.95471 14.6476 4.93323 14.8488 4.93323 15.0246Z" fill="#FF2D55"/>
</svg>
