<svg width="24" height="25" viewBox="0 0 24 25" fill="none" xmlns="http://www.w3.org/2000/svg">
<rect y="0.90097" width="24" height="24" rx="12" fill="#EDD7C1"/>
<path d="M8.2793 21.2379C7.80469 21.2379 7.42969 21.1031 7.1543 20.8336C6.87891 20.5699 6.74121 20.1891 6.74121 19.691V19.524C6.74121 18.985 6.86133 18.4459 7.10156 17.9068C7.34766 17.3619 7.65234 16.8434 8.01562 16.3512C8.38477 15.8531 8.7627 15.399 9.14941 14.9889C9.54199 14.5787 9.87891 14.2301 10.1602 13.943C10.4648 13.65 10.6113 13.3453 10.5996 13.0289C10.5938 12.7125 10.4473 12.4166 10.1602 12.1412C9.87891 11.8541 9.54199 11.5055 9.14941 11.0953C8.7627 10.6852 8.38477 10.234 8.01562 9.74179C7.65234 9.2496 7.34766 8.73398 7.10156 8.19492C6.86133 7.64999 6.74121 7.10507 6.74121 6.56015V6.41953C6.74121 5.91562 6.87891 5.53183 7.1543 5.26816C7.42969 4.99863 7.80469 4.86386 8.2793 4.86386H15.6973C16.1777 4.86386 16.5557 4.99863 16.8311 5.26816C17.1064 5.53183 17.2441 5.91562 17.2441 6.41953V6.56015C17.2441 7.10507 17.1211 7.64999 16.875 8.19492C16.6348 8.73398 16.3301 9.2496 15.9609 9.74179C15.5918 10.234 15.2139 10.6852 14.8271 11.0953C14.4404 11.5055 14.1035 11.8541 13.8164 12.1412C13.541 12.4166 13.3975 12.7125 13.3857 13.0289C13.374 13.3453 13.5176 13.65 13.8164 13.943C14.1035 14.2301 14.4404 14.5787 14.8271 14.9889C15.2139 15.399 15.5918 15.8531 15.9609 16.3512C16.3301 16.8434 16.6348 17.3619 16.875 17.9068C17.1211 18.4459 17.2441 18.985 17.2441 19.524V19.691C17.2441 20.1891 17.1064 20.5699 16.8311 20.8336C16.5557 21.1031 16.1777 21.2379 15.6973 21.2379H8.2793ZM9.02637 19.8668H14.959C15.1641 19.8668 15.2871 19.776 15.3281 19.5943C15.375 19.4185 15.3311 19.2662 15.1963 19.1373L12.5156 16.5621C12.4453 16.4918 12.3984 16.4361 12.375 16.3951C12.3516 16.3482 12.3398 16.2721 12.3398 16.1666V12.44C12.3398 12.2232 12.3662 12.0475 12.4189 11.9127C12.4775 11.7721 12.5859 11.6314 12.7441 11.4908C13.0254 11.2506 13.3418 10.9723 13.6934 10.6559C14.0449 10.3336 14.3525 10.0348 14.6162 9.75937C14.7393 9.63046 14.7773 9.50156 14.7305 9.37265C14.6836 9.24374 14.5781 9.17929 14.4141 9.17929H9.57129C9.40723 9.17929 9.30176 9.24374 9.25488 9.37265C9.20801 9.50156 9.24609 9.63046 9.36914 9.75937C9.62695 10.0348 9.93457 10.3336 10.292 10.6559C10.6494 10.9723 10.9658 11.2506 11.2412 11.4908C11.3994 11.6314 11.5049 11.7721 11.5576 11.9127C11.6162 12.0475 11.6455 12.2232 11.6455 12.44V16.1666C11.6455 16.2721 11.6309 16.3482 11.6016 16.3951C11.5781 16.4361 11.5312 16.4918 11.4609 16.5621L8.78906 19.1373C8.64844 19.2662 8.60156 19.4185 8.64844 19.5943C8.70117 19.776 8.82715 19.8668 9.02637 19.8668Z" fill="#AC7F5E"/>
</svg>
