<svg class="list-icon" style="height: 18px; width: auto;"  width="27" height="18" viewBox="0 0 27 18" fill="none" xmlns="http://www.w3.org/2000/svg">
<path d="M0.789978 3.41689C0.789978 2.60595 1.02291 1.96324 1.48876 1.48876C1.94599 1.02291 2.59301 0.789978 3.42983 0.789978H3.6498C4.48663 0.789978 5.31481 0.971144 6.13436 1.33348C6.95392 1.6958 7.72603 2.14441 8.45068 2.67927C9.18397 3.22277 9.8353 3.76628 10.4047 4.30977C10.9827 4.85325 11.4529 5.30187 11.8152 5.65556C12.2552 6.10417 12.7253 6.32414 13.2257 6.31552C13.7347 6.30689 14.2005 6.0869 14.6232 5.65556C14.977 5.30187 15.4385 4.85325 16.0079 4.30977C16.5859 3.76628 17.2372 3.22277 17.9619 2.67927C18.6951 2.14441 19.4716 1.6958 20.2911 1.33348C21.1107 0.971144 21.9432 0.789978 22.7886 0.789978H22.9827C23.8109 0.789978 24.4579 1.02291 24.9238 1.48876C25.3896 1.96324 25.6226 2.60595 25.6226 3.41689V14.2868C25.6226 15.0977 25.3896 15.7361 24.9238 16.202C24.4579 16.6765 23.8109 16.9137 22.9827 16.9137H22.7886C21.9432 16.9137 21.1107 16.7282 20.2911 16.3573C19.4716 15.9949 18.6951 15.5463 17.9619 15.0115C17.2372 14.4766 16.5859 13.9374 16.0079 13.3939C15.4385 12.8504 14.977 12.3975 14.6232 12.0352C14.2005 11.6124 13.7347 11.3968 13.2257 11.3882C12.7253 11.3795 12.2552 11.5952 11.8152 12.0352C11.4529 12.3975 10.9827 12.8504 10.4047 13.3939C9.8353 13.9374 9.18397 14.4766 8.45068 15.0115C7.72603 15.5463 6.95392 15.9949 6.13436 16.3573C5.31481 16.7282 4.48663 16.9137 3.6498 16.9137H3.42983C2.59301 16.9137 1.94599 16.6765 1.48876 16.202C1.02291 15.7361 0.789978 15.0977 0.789978 14.2868V3.41689ZM3.40393 4.72386V12.9798C3.40393 13.3163 3.5549 13.5276 3.85684 13.6139C4.15016 13.7088 4.41328 13.6398 4.64622 13.4069L8.12717 9.90001C8.29971 9.72746 8.42911 9.61532 8.51538 9.56357C8.61028 9.52042 8.80008 9.49884 9.08477 9.49884H14.028C14.3989 9.49884 14.7095 9.55062 14.9597 9.65414C15.2099 9.75766 15.4557 9.93883 15.6973 10.1976C16.0165 10.56 16.3961 10.9741 16.8361 11.4399C17.276 11.9058 17.6858 12.3112 18.0654 12.6563C18.2897 12.872 18.5226 12.9367 18.7642 12.8504C19.0144 12.7728 19.1394 12.5743 19.1394 12.2552V5.44851C19.1394 5.1207 19.0144 4.91795 18.7642 4.84033C18.5226 4.76268 18.2897 4.8317 18.0654 5.04737C17.6858 5.38382 17.276 5.78496 16.8361 6.25082C16.3961 6.72531 16.0165 7.1394 15.6973 7.49309C15.4557 7.76053 15.2099 7.946 14.9597 8.04953C14.7095 8.15305 14.3989 8.20482 14.028 8.20482H9.08477C8.80008 8.20482 8.61028 8.17892 8.51538 8.12718C8.42911 8.0754 8.29971 7.96758 8.12717 7.80366L4.64622 4.29682C4.41328 4.0639 4.15016 3.99487 3.85684 4.08977C3.5549 4.18467 3.40393 4.39604 3.40393 4.72386Z" stroke="currentColor" stroke-width="1.58"/>
</svg>
