<svg width="25" height="52" viewBox="0 0 25 52" fill="none" xmlns="http://www.w3.org/2000/svg">
<path d="M7.76911 47.3466C9.13501 47.2301 10.8283 47.6077 11.9833 48.3108C12.4775 48.596 12.5458 49.0419 12.1239 49.4196C11.0654 50.3837 9.44033 51.1129 8.05233 51.2073C6.61613 51.3961 4.8987 50.9482 3.74371 50.0784C3.36608 49.8173 3.34197 49.4196 3.69751 49.0901C4.73198 48.126 6.35701 47.443 7.76911 47.3466ZM2.82574 39.3922C3.579 40.5452 4.00283 42.2385 3.95462 43.6044C3.86222 45.0406 3.20137 46.6877 2.2834 47.7021C1.97808 48.0536 1.60045 48.0536 1.29513 47.676C0.377161 46.5933 -0.116978 44.8759 0.0236301 43.4176C0.118038 42.0517 0.800993 40.4267 1.74306 39.344C2.09659 38.9222 2.52042 38.9443 2.82574 39.3922ZM14.4058 40.969C15.7014 40.497 17.467 40.4508 18.7847 40.8505C19.303 41.0152 19.4436 41.415 19.1624 41.887C18.385 43.0862 16.997 44.193 15.7014 44.663C14.3837 45.2053 12.594 45.2053 11.2522 44.6409C10.8042 44.4762 10.6877 44.1227 10.9468 43.6988C11.7001 42.4976 13.0881 41.417 14.4058 40.969ZM7.6285 34.5653C8.63887 35.4833 9.51064 36.9898 9.76976 38.3316C10.0751 39.7437 9.86417 41.5094 9.22741 42.7106C9.04061 43.1565 8.66498 43.2288 8.26325 42.9456C7.13236 42.122 6.21439 40.5914 5.97937 39.1331C5.69816 37.7913 5.93318 36.0257 6.56792 34.7542C6.78084 34.2359 7.22676 34.1656 7.62649 34.5653H7.6285ZM24.3146 31.8576C24.1258 33.2235 23.3023 34.8245 22.2899 35.8147C21.3016 36.8492 19.6786 37.5543 18.2183 37.6025C17.7482 37.6266 17.4891 37.3213 17.5594 36.8492C17.7944 35.413 18.618 33.8824 19.6304 32.9644C20.6428 32.0003 22.1955 31.247 23.5614 31.0823C24.1258 31.012 24.409 31.3173 24.3146 31.8576ZM10.8263 29.8349C12.2102 30.3497 13.419 31.2477 14.3114 32.4241C15.157 33.5289 15.6532 35.2021 15.605 36.6624C15.5588 37.1083 15.2515 37.3434 14.7814 37.273C13.3693 36.9436 11.8869 35.9313 11.1337 34.706C10.3563 33.5068 9.83805 31.8335 9.93246 30.4475C9.93246 29.8811 10.286 29.6441 10.8263 29.8349ZM14.7573 24.3271C15.8641 25.221 16.7821 26.7275 17.0653 28.1155C17.1356 28.5393 16.9006 28.8687 16.4526 28.8928C14.9943 28.939 13.3211 28.3043 12.2625 27.3622C11.204 26.4442 10.2619 24.9136 9.95656 23.5497C9.88425 23.0315 10.1675 22.678 10.6857 22.7021C12.0978 22.8206 13.7228 23.4312 14.7573 24.3271ZM24.2945 21.2418C24.416 22.7531 24.0711 24.2653 23.3063 25.5745C22.6012 26.844 21.2112 27.9508 19.8453 28.3264C19.4235 28.469 19.0459 28.234 18.9997 27.7639C18.859 26.4201 19.2588 24.7027 20.012 23.4794C20.7653 22.3023 22.1071 21.1715 23.3545 20.6773C23.8486 20.4664 24.2483 20.6773 24.2945 21.2418ZM13.4677 16.4169C14.8095 16.8869 16.1995 17.9475 16.9508 19.1708C17.2099 19.5484 17.0693 19.9482 16.6455 20.135C15.3037 20.6773 13.538 20.6773 12.1962 20.135C10.8303 19.6187 9.41824 18.4879 8.73529 17.2887C8.45407 16.8648 8.59468 16.4651 9.11292 16.2984C10.4547 15.9228 12.1962 15.9469 13.4677 16.4169ZM21.3759 10.2502C21.9886 11.5438 22.2236 13.2854 21.9645 14.6513C21.7053 16.0875 20.7874 17.594 19.6103 18.4417C19.2588 18.7229 18.8811 18.6064 18.6461 18.1805C18.0335 16.9592 17.8226 15.2157 18.1279 13.8277C18.4091 12.4618 19.305 10.9553 20.2932 10.0132C20.6709 9.6838 21.1148 9.77821 21.3759 10.2502ZM9.20733 9.6376C10.5953 9.89672 12.1259 10.7906 12.9957 11.8733C13.2789 12.2027 13.2086 12.6044 12.831 12.8615C11.5856 13.5927 9.81796 13.8257 8.42997 13.4501C7.04197 13.1448 5.51135 12.2268 4.61749 11.1903C4.26396 10.7685 4.35636 10.3447 4.8525 10.1317C6.22444 9.54428 7.73864 9.37247 9.20733 9.6376ZM16.1513 2.38626C16.9508 3.58745 17.4208 5.30688 17.3284 6.67078C17.3043 8.10698 16.5973 9.73201 15.5608 10.7685C15.2093 11.0979 14.8095 11.0497 14.5504 10.6741C13.7731 9.47289 13.303 7.75346 13.4195 6.38956C13.5139 5.04776 14.1507 3.44684 15.0446 2.34006C15.4202 1.91823 15.844 1.96443 16.1493 2.38827L16.1513 2.38626ZM4.00484 0.0099855C5.37074 0.220897 6.92345 1.04647 7.91173 2.01063C8.9 2.9748 9.67937 4.60183 9.84207 5.96573C9.88827 6.43576 9.63116 6.71898 9.15912 6.69488C7.72291 6.62458 6.124 5.87132 5.13372 4.76654C4.19366 3.77626 3.4163 2.19945 3.20539 0.787345C3.15718 0.245001 3.4404 -0.0603184 4.00484 0.0099855Z" fill="#7D6153"/>
</svg>
