<svg width="25" height="52" viewBox="0 0 25 52" fill="none" xmlns="http://www.w3.org/2000/svg">
<path d="M16.5634 47.3466C15.1975 47.2301 13.5042 47.6077 12.3492 48.3108C11.8551 48.596 11.7868 49.0419 12.2086 49.4196C13.2672 50.3837 14.8922 51.1129 16.2802 51.2073C17.7164 51.3961 19.4338 50.9482 20.5888 50.0784C20.9664 49.8173 20.9905 49.4196 20.635 49.0901C19.6005 48.126 17.9755 47.443 16.5634 47.3466ZM21.5068 39.3922C20.7535 40.5452 20.3297 42.2385 20.3779 43.6044C20.4703 45.0406 21.1312 46.6877 22.0491 47.7021C22.3544 48.0536 22.7321 48.0536 23.0374 47.676C23.9554 46.5933 24.4495 44.8759 24.3089 43.4176C24.2145 42.0517 23.5315 40.4267 22.5895 39.344C22.2359 38.9222 21.8121 38.9443 21.5068 39.3922ZM9.92672 40.969C8.63112 40.497 6.86549 40.4508 5.5478 40.8505C5.02956 41.0152 4.88895 41.415 5.17016 41.887C5.94752 43.0862 7.33552 44.193 8.63112 44.663C9.94882 45.2053 11.7386 45.2053 13.0804 44.6409C13.5283 44.4762 13.6448 44.1227 13.3857 43.6988C12.6324 42.4976 11.2444 41.417 9.92672 40.969ZM16.704 34.5653C15.6936 35.4833 14.8219 36.9898 14.5628 38.3316C14.2574 39.7437 14.4684 41.5094 15.1051 42.7106C15.2919 43.1565 15.6675 43.2288 16.0693 42.9456C17.2002 42.122 18.1181 40.5914 18.3531 39.1331C18.6344 37.7913 18.3993 36.0257 17.7646 34.7542C17.5517 34.2359 17.1058 34.1656 16.706 34.5653H16.704ZM0.0178945 31.8576C0.206711 33.2235 1.03027 34.8245 2.04264 35.8147C3.03092 36.8492 4.65393 37.5543 6.11424 37.6025C6.58428 37.6266 6.8434 37.3213 6.77309 36.8492C6.53808 35.413 5.71452 33.8824 4.70214 32.9644C3.68976 32.0003 2.13705 31.247 0.77115 31.0823C0.206711 31.012 -0.0765136 31.3173 0.0178945 31.8576ZM13.5062 29.8349C12.1223 30.3497 10.9135 31.2477 10.0211 32.4241C9.17548 33.5289 8.67933 35.2021 8.72754 36.6624C8.77374 37.1083 9.08107 37.3434 9.5511 37.273C10.9632 36.9436 12.4456 35.9313 13.1989 34.706C13.9762 33.5068 14.4945 31.8335 14.4001 30.4475C14.4001 29.8811 14.0465 29.6441 13.5062 29.8349ZM9.5752 24.3271C8.46842 25.221 7.55045 26.7275 7.26723 28.1155C7.19693 28.5393 7.43194 28.8687 7.87988 28.8928C9.33818 28.939 11.0114 28.3043 12.07 27.3622C13.1286 26.4442 14.0706 24.9136 14.376 23.5497C14.4483 23.0315 14.165 22.678 13.6468 22.7021C12.2347 22.8206 10.6097 23.4312 9.5752 24.3271ZM0.0379818 21.2418C-0.0834986 22.7531 0.261432 24.2653 1.02625 25.5745C1.7313 26.844 3.12131 27.9508 4.48721 28.3264C4.90903 28.469 5.28667 28.234 5.33287 27.7639C5.47347 26.4201 5.07375 24.7027 4.32049 23.4794C3.56724 22.3023 2.22544 21.1715 0.978044 20.6773C0.483908 20.4664 0.0841815 20.6773 0.0379818 21.2418ZM10.8648 16.4169C9.52298 16.8869 8.13297 17.9475 7.38172 19.1708C7.1226 19.5484 7.26321 19.9482 7.68704 20.135C9.02884 20.6773 10.7945 20.6773 12.1363 20.135C13.5022 19.6187 14.9143 18.4879 15.5972 17.2887C15.8784 16.8648 15.7378 16.4651 15.2196 16.2984C13.8778 15.9228 12.1363 15.9469 10.8648 16.4169ZM2.9566 10.2502C2.34395 11.5438 2.10893 13.2854 2.36805 14.6513C2.62717 16.0875 3.54514 17.594 4.72223 18.4417C5.07375 18.7229 5.45138 18.6064 5.68639 18.1805C6.29904 16.9592 6.50996 15.2157 6.20464 13.8277C5.92342 12.4618 5.02755 10.9553 4.03928 10.0132C3.66164 9.6838 3.21772 9.77821 2.9566 10.2502ZM15.1252 9.6376C13.7372 9.89672 12.2066 10.7906 11.3368 11.8733C11.0536 12.2027 11.1239 12.6044 11.5015 12.8615C12.7469 13.5927 14.5146 13.8257 15.9026 13.4501C17.2906 13.1448 18.8212 12.2268 19.715 11.1903C20.0686 10.7685 19.9762 10.3447 19.48 10.1317C18.1081 9.54428 16.5939 9.37247 15.1252 9.6376ZM8.18118 2.38626C7.38172 3.58745 6.91169 5.30688 7.00409 6.67078C7.02819 8.10698 7.73525 9.73201 8.77173 10.7685C9.12325 11.0979 9.52298 11.0497 9.7821 10.6741C10.5595 9.47289 11.0295 7.75346 10.913 6.38956C10.8186 5.04776 10.1818 3.44684 9.28796 2.34006C8.91234 1.91823 8.48851 1.96443 8.18319 2.38827L8.18118 2.38626ZM20.3277 0.0099855C18.9618 0.220897 17.4091 1.04647 16.4208 2.01063C15.4325 2.9748 14.6532 4.60183 14.4904 5.96573C14.4443 6.43576 14.7014 6.71898 15.1734 6.69488C16.6096 6.62458 18.2085 5.87132 19.1988 4.76654C20.1389 3.77626 20.9162 2.19945 21.1271 0.787345C21.1753 0.245001 20.8921 -0.0603184 20.3277 0.0099855Z" fill="#0057FF"/>
</svg>
