<svg class="list-icon" style="height: 18px; width: auto;"  width="38" height="19" viewBox="0 0 38 19" fill="none" xmlns="http://www.w3.org/2000/svg">
<path d="M19.0001 0.791992C24.1505 0.791995 28.7744 1.83685 32.0812 3.49023C35.4353 5.16732 37.2081 7.33805 37.2081 9.5C37.2081 11.6619 35.4353 13.8327 32.0812 15.5098C28.7744 17.1632 24.1505 18.208 19.0001 18.208C13.8497 18.208 9.22587 17.1631 5.91907 15.5098C2.56491 13.8327 0.792119 11.6619 0.792114 9.5C0.792114 7.33805 2.5649 5.16732 5.91907 3.49023C9.22587 1.83685 13.8497 0.791992 19.0001 0.791992Z" stroke="currentColor" stroke-width="1.58333"/>
<path d="M19.7913 0.792053C23.3638 0.792053 26.5651 1.81555 28.8519 3.42975C31.1405 5.04538 32.4583 7.20308 32.4583 9.50006C32.4583 11.797 31.1405 13.9547 28.8519 15.5704C26.5651 17.1846 23.3638 18.2081 19.7913 18.2081C16.219 18.208 13.0185 17.1845 10.7318 15.5704C8.44301 13.9547 7.12531 11.7971 7.12531 9.50006C7.12531 7.20301 8.44301 5.0454 10.7318 3.42975C13.0185 1.8156 16.219 0.792113 19.7913 0.792053Z" stroke="currentColor" stroke-width="1.58333"/>
<path d="M19.0003 0.792053C22.8061 0.792273 26.1253 4.54945 26.1253 9.50006C26.1253 14.4507 22.8061 18.2078 19.0003 18.2081C15.1943 18.2081 11.8753 14.4508 11.8753 9.50006C11.8753 4.54931 15.1943 0.792053 19.0003 0.792053Z" stroke="currentColor" stroke-width="1.58333"/>
<path d="M19.0936 2.85944C19.2575 4.53805 19.3163 6.88081 19.3163 9.50006C19.3163 12.1193 19.2575 14.4621 19.0936 16.1407C19.088 16.1984 19.0799 16.2549 19.0741 16.3106C19.0716 16.2666 19.0686 16.222 19.0663 16.1768C18.979 14.4843 18.9999 12.1402 18.9999 9.50006C18.9999 6.85995 18.979 4.51586 19.0663 2.8233C19.0686 2.77775 19.0716 2.73284 19.0741 2.68854C19.08 2.74458 19.088 2.80139 19.0936 2.85944Z" stroke="currentColor" stroke-width="1.58333"/>
<path d="M19 10.292C21.3937 10.292 23.6816 10.2529 25.7861 10.1855C23.6788 10.2451 21.3901 10.292 19 10.292ZM19 10.292C16.6089 10.292 14.3234 10.2528 12.2207 10.1855C14.3261 10.2451 16.6125 10.292 19 10.292Z" stroke="currentColor" stroke-width="1.58333"/>
</svg>
