<svg width="18" height="18" viewBox="0 0 18 18" fill="none" xmlns="http://www.w3.org/2000/svg">
<path d="M4.19458 15.5864C3.49146 15.5864 2.96411 15.413 2.61255 15.0663C2.26587 14.7197 2.09253 14.1923 2.09253 13.4843V11.9536C2.09253 11.8364 2.05347 11.7338 1.97534 11.6459L0.891357 10.562C0.388428 10.0639 0.136963 9.57074 0.136963 9.08246C0.136963 8.59418 0.388428 8.09857 0.891357 7.59564L1.97534 6.50433C2.05347 6.42133 2.09253 6.32123 2.09253 6.20404V4.66595C2.09253 3.95306 2.26587 3.42572 2.61255 3.08392C2.95923 2.74213 3.48657 2.57123 4.19458 2.57123H5.73267C5.84985 2.57123 5.94995 2.52972 6.03296 2.44672L7.12427 1.36273C7.62231 0.859802 8.11548 0.608337 8.60376 0.608337C9.09204 0.603455 9.58765 0.854919 10.0906 1.36273L11.1746 2.44672C11.2576 2.52972 11.3601 2.57123 11.4822 2.57123H13.0129C13.7209 2.57123 14.2483 2.74457 14.595 3.09125C14.9417 3.43793 15.115 3.96283 15.115 4.66595V6.20404C15.115 6.32123 15.1565 6.42133 15.2395 6.50433L16.3235 7.59564C16.8215 8.09857 17.0706 8.59418 17.0706 9.08246C17.0754 9.57074 16.8264 10.0639 16.3235 10.562L15.2395 11.6459C15.1565 11.7338 15.115 11.8364 15.115 11.9536V13.4843C15.115 14.1972 14.9417 14.7245 14.595 15.0663C14.2483 15.413 13.7209 15.5864 13.0129 15.5864H11.4822C11.3601 15.5864 11.2576 15.6279 11.1746 15.7109L10.0906 16.7949C9.58765 17.2978 9.09204 17.5493 8.60376 17.5493C8.11548 17.5493 7.62231 17.2978 7.12427 16.7949L6.03296 15.7109C5.94995 15.6279 5.84985 15.5864 5.73267 15.5864H4.19458ZM7.7981 12.7446C7.95923 12.7446 8.10571 12.7079 8.23755 12.6347C8.37427 12.5566 8.49146 12.4467 8.58911 12.3051L11.9949 7.10492C12.0535 7.01215 12.0999 6.91693 12.134 6.81927C12.1731 6.72162 12.1926 6.6264 12.1926 6.53363C12.1926 6.30902 12.1072 6.12347 11.9363 5.97699C11.7703 5.83051 11.5774 5.75726 11.3577 5.75726C11.0696 5.75726 10.8279 5.91351 10.6326 6.22601L7.78345 10.7597L6.50171 9.19232C6.40405 9.07025 6.30151 8.98236 6.19409 8.92865C6.09155 8.87494 5.97192 8.84808 5.83521 8.84808C5.61548 8.84808 5.42505 8.92865 5.26392 9.08978C5.10278 9.24603 5.02222 9.43646 5.02222 9.66107C5.02222 9.76849 5.04175 9.87103 5.08081 9.96869C5.11987 10.0663 5.18091 10.1664 5.26392 10.269L6.97778 12.3198C7.09497 12.4614 7.21948 12.5688 7.35132 12.642C7.48315 12.7104 7.63208 12.7446 7.7981 12.7446Z" fill="#292524"/>
</svg>
