<svg width="232" height="102" viewBox="0 0 232 102" fill="none" xmlns="http://www.w3.org/2000/svg">
<path d="M63.5519 51.328C63.8506 51.5413 64.0213 51.8187 64.0639 52.16C64.1066 52.5013 64.0426 52.8 63.8719 53.056C63.6159 53.3973 63.2746 53.568 62.8479 53.568C62.6773 53.568 62.5066 53.5253 62.3359 53.44C61.4826 53.2693 57.2586 53.056 49.6639 52.8C47.5733 61.5467 45.8879 68.9493 44.6079 75.008C42.0053 87.0827 40.7039 94.8267 40.7039 98.24C40.8746 97.9413 41.0666 97.6213 41.2799 97.28C41.4506 96.9813 41.7066 96.7893 42.0479 96.704C42.3893 96.6187 42.6879 96.6613 42.9439 96.832C43.2426 97.0027 43.4346 97.2373 43.5199 97.536C43.6053 97.8773 43.5626 98.1973 43.3919 98.496C42.1546 100.587 41.0879 101.632 40.1919 101.632C39.9786 101.632 39.7653 101.589 39.5519 101.504C39.0399 101.291 38.6773 100.821 38.4639 100.096C38.2933 99.4133 38.2506 98.0693 38.3359 96.064C38.4639 94.1013 38.8479 91.3707 39.4879 87.872C40.1279 84.3733 41.0666 79.7227 42.3039 73.92C43.5839 68.16 45.2053 61.0987 47.1679 52.736C44.2666 52.6507 39.9359 52.544 34.1759 52.416C33.3226 52.3733 32.3626 52.352 31.2959 52.352C24.8533 64.5973 19.8613 73.152 16.3199 78.016C15.3813 79.2533 14.4426 80.2133 13.5039 80.896C12.5653 81.5787 11.6906 81.9627 10.8799 82.048C10.0693 82.176 9.38661 82.176 8.83194 82.048C8.27728 81.92 7.74394 81.7067 7.23194 81.408C5.01328 80.128 3.24261 77.5253 1.91994 73.6C0.639944 69.7173 0.0639435 65.408 0.191943 60.672C0.319944 55.8933 1.15194 51.7333 2.68794 48.192C4.60794 43.84 7.40261 40.9173 11.0719 39.424C14.7839 37.9307 19.1359 37.9733 24.1279 39.552C24.4693 39.6373 24.7039 39.8293 24.8319 40.128C25.0026 40.4267 25.0239 40.7467 24.8959 41.088C24.8106 41.3867 24.6186 41.6213 24.3199 41.792C24.0213 41.9627 23.7013 41.984 23.3599 41.856C21.6959 41.344 20.0746 41.024 18.4959 40.896C16.9173 40.768 15.2533 40.896 13.5039 41.28C11.7973 41.6213 10.1973 42.4747 8.70394 43.84C7.21061 45.1627 5.95194 46.9547 4.92794 49.216C4.15994 50.9653 3.58394 52.9067 3.19994 55.04C2.81594 57.1733 2.62394 59.264 2.62394 61.312C2.62394 63.36 2.77328 65.3653 3.07194 67.328C3.37061 69.3333 3.77594 71.1253 4.28794 72.704C4.84261 74.3253 5.46128 75.712 6.14394 76.864C6.86928 78.016 7.63728 78.8267 8.44794 79.296C10.2399 80.32 12.2026 79.4027 14.3359 76.544C17.7493 71.936 22.4853 63.8507 28.5439 52.288C17.4506 51.9893 11.3919 51.7333 10.3679 51.52C10.0266 51.4347 9.74928 51.264 9.53594 51.008C9.36528 50.7093 9.30128 50.3893 9.34394 50.048C9.42928 49.7067 9.62128 49.4507 9.91994 49.28C10.2186 49.1093 10.5173 49.0453 10.8159 49.088C11.7546 49.3013 18.0906 49.5573 29.8239 49.856C31.7013 46.1867 34.5386 40.64 38.3359 33.216C40.8106 28.2667 42.8373 24.256 44.4159 21.184C45.9946 18.112 47.5306 15.1893 49.0239 12.416C50.5599 9.64266 51.7759 7.552 52.6719 6.14399C53.5679 4.69333 54.4213 3.45599 55.2319 2.432C56.0426 1.36533 56.7039 0.703997 57.2159 0.447998C57.7706 0.149328 58.3039 0.0853271 58.8159 0.255997C59.4986 0.511996 59.9253 1.08799 60.0959 1.98399C60.3093 2.87999 60.3306 4.11733 60.1599 5.696C59.9039 8.46933 59.1573 12.608 57.9199 18.112C57.4079 20.544 56.1066 26.048 54.0159 34.624C52.3946 41.3653 51.1359 46.6133 50.2399 50.368C58.5599 50.624 62.9973 50.944 63.5519 51.328ZM34.2399 49.92C39.8293 50.0907 44.3306 50.2187 47.7439 50.304C48.8959 45.3547 50.1759 39.936 51.5839 34.048C53.6746 25.5147 54.9973 20.032 55.5519 17.6C57.2159 10.048 57.9626 5.20533 57.7919 3.07199C57.1093 3.75466 56.1493 5.09866 54.9119 7.104C53.7173 9.06666 52.1813 11.7973 50.3039 15.296C48.4693 18.7947 46.9333 21.76 45.6959 24.192C44.4586 26.5813 42.7306 29.952 40.5119 34.304C37.0133 41.216 34.3679 46.4213 32.5759 49.92C32.7466 49.92 33.0026 49.92 33.3439 49.92C33.7279 49.92 34.0266 49.92 34.2399 49.92ZM94.4419 49.92C94.7833 49.792 95.1033 49.8133 95.4019 49.984C95.7006 50.112 95.9139 50.3467 96.0419 50.688C96.1699 50.9867 96.1486 51.2853 95.9779 51.584C94.8259 54.0587 93.5246 56.5973 92.0739 59.2C90.6233 61.8027 89.0233 64.4267 87.2739 67.072C85.5673 69.76 83.8606 71.936 82.1539 73.6C80.4473 75.3067 78.9966 76.16 77.8019 76.16C77.5033 76.16 77.2259 76.096 76.9699 75.968C75.2206 75.2853 74.6659 72.64 75.3059 68.032C75.9033 63.7227 77.4819 57.6213 80.0419 49.728C79.9993 49.728 79.9566 49.7493 79.9139 49.792C79.9139 49.792 79.8926 49.792 79.8499 49.792C78.9113 50.432 78.1219 50.9227 77.4819 51.264C76.8846 51.6053 76.0526 51.9893 74.9859 52.416C73.9619 52.8427 72.9806 53.0347 72.0419 52.992C71.1033 52.9493 70.2286 52.6507 69.4179 52.096C67.7966 50.944 66.9646 49.344 66.9219 47.296C66.8793 45.248 67.6473 43.008 69.2259 40.576C70.2073 39.04 71.3806 37.696 72.7459 36.544C74.1539 35.392 75.3486 35.136 76.3299 35.776C76.9273 36.1173 77.2686 36.672 77.3539 37.44C77.4819 38.208 77.1193 39.7013 76.2659 41.92C75.4126 44.096 73.9833 46.9547 71.9779 50.496C73.3006 50.6667 75.4766 49.7493 78.5059 47.744C79.0606 47.36 79.4659 47.104 79.7219 46.976C80.0206 46.8053 80.3406 46.6347 80.6819 46.464C81.0659 46.2933 81.3859 46.2293 81.6419 46.272C81.8979 46.3147 82.1539 46.4213 82.4099 46.592C83.0499 47.104 83.1566 48 82.7299 49.28C78.4633 62.5067 76.7779 70.528 77.6739 73.344C77.7593 73.5147 77.8233 73.6427 77.8659 73.728C78.2073 73.7707 78.7193 73.4933 79.4019 72.896C80.1273 72.2987 81.0019 71.36 82.0259 70.08C83.0926 68.8 84.2233 67.264 85.4179 65.472C86.6553 63.68 87.9993 61.4827 89.4499 58.88C90.9433 56.2773 92.3726 53.504 93.7379 50.56C93.9086 50.2187 94.1433 50.0053 94.4419 49.92ZM69.6099 45.568C69.2259 47.0613 69.3113 48.256 69.8659 49.152C72.9806 43.7333 74.6446 40.064 74.8579 38.144C74.3459 38.4427 73.7486 38.9333 73.0659 39.616C72.4259 40.2987 71.7433 41.1947 71.0179 42.304C70.3353 43.3707 69.8659 44.4587 69.6099 45.568ZM119.821 11.008C120.931 12.1173 120.376 16.0427 118.157 22.784C117.987 23.296 117.752 24 117.453 24.896C116.515 27.7547 115.747 30.0373 115.149 31.744C114.552 33.4507 113.613 35.84 112.333 38.912C111.053 41.984 109.667 44.928 108.173 47.744C106.936 53.632 105.763 59.904 104.653 66.56C102.733 77.952 101.709 85.6747 101.581 89.728C101.923 89.6 102.264 89.6 102.605 89.728C102.904 89.8987 103.096 90.1333 103.181 90.432C103.309 90.7733 103.309 91.0933 103.181 91.392C102.413 93.0133 101.645 93.824 100.877 93.824C100.707 93.824 100.536 93.8027 100.365 93.76C99.8961 93.5893 99.5548 93.2693 99.3414 92.8C99.1708 92.3733 99.0854 91.4347 99.0854 89.984C99.1281 88.576 99.3201 86.4853 99.6614 83.712C100.173 79.2747 101.027 73.4293 102.221 66.176C102.904 62.208 103.608 58.3467 104.333 54.592C103.011 56.7253 101.603 58.8587 100.109 60.992C97.2934 65.088 94.8401 66.56 92.7494 65.408C91.3841 64.4267 90.7228 62.6987 90.7654 60.224C90.8081 57.7067 91.4268 55.168 92.6214 52.608C94.0294 49.6213 95.6934 47.424 97.6134 46.016C99.5334 44.608 101.24 44.1387 102.733 44.608C104.227 45.0347 105.08 46.144 105.293 47.936C105.507 47.5947 105.699 47.2533 105.869 46.912C108.131 36.2027 110.392 27.6053 112.653 21.12C114.957 14.592 116.835 11.0933 118.285 10.624C118.883 10.4107 119.395 10.5387 119.821 11.008ZM98.1254 59.584C100.131 56.6827 101.965 53.7813 103.629 50.88C102.989 50.6667 102.733 50.24 102.861 49.6C103.032 48.0213 102.755 47.1253 102.029 46.912C101.944 46.912 101.816 46.912 101.645 46.912C100.749 46.912 99.6401 47.5093 98.3174 48.704C97.0374 49.856 95.8854 51.52 94.8614 53.696C94.1788 55.104 93.7094 56.5547 93.4534 58.048C93.2401 59.4987 93.1974 60.6933 93.3254 61.632C93.4534 62.528 93.6881 63.0613 94.0294 63.232C94.1574 63.3173 94.3494 63.3173 94.6054 63.232C94.9041 63.104 95.3734 62.7413 96.0134 62.144C96.6534 61.504 97.3574 60.6507 98.1254 59.584ZM115.789 22.016C116.643 19.4133 117.261 17.1947 117.645 15.36C115.555 19.7547 113.315 26.6027 110.925 35.904C112.12 33.0027 113.507 29.0987 115.085 24.192C115.384 23.2533 115.619 22.528 115.789 22.016ZM138.412 50.176C138.753 50.048 139.073 50.0693 139.372 50.24C139.671 50.368 139.863 50.6027 139.948 50.944C140.076 51.2427 140.076 51.5413 139.948 51.84C135.383 61.2693 131.308 65.984 127.724 65.984C127.511 65.984 127.276 65.9627 127.02 65.92C124.161 65.3653 122.391 61.5253 121.708 54.4C119.617 57.216 117.761 59.52 116.14 61.312C114.689 62.848 113.452 63.3813 112.428 62.912C111.404 62.528 110.913 61.4187 110.956 59.584C110.956 58.048 111.297 56.2133 111.98 54.08C112.663 51.9467 113.665 49.8773 114.988 47.872C116.311 45.8667 117.74 44.608 119.276 44.096C121.537 43.2853 123.628 44.032 125.548 46.336C125.761 46.592 125.847 46.8907 125.804 47.232C125.804 47.5733 125.676 47.8507 125.42 48.064C125.164 48.2773 124.865 48.384 124.524 48.384C124.183 48.3413 123.905 48.192 123.692 47.936C122.199 46.144 120.684 45.8027 119.148 46.912C117.399 48.1493 115.927 50.3893 114.732 53.632C113.58 56.832 113.132 59.1147 113.388 60.48C113.644 60.2667 113.943 59.9893 114.284 59.648C115.991 57.8133 118.081 55.1893 120.556 51.776C121.111 51.008 121.495 50.4747 121.708 50.176C122.049 49.7493 122.497 49.6213 123.052 49.792C123.607 49.92 123.905 50.2827 123.948 50.88C124.033 52.9707 124.204 54.8267 124.46 56.448C124.716 58.0693 124.972 59.3067 125.228 60.16C125.484 60.9707 125.783 61.6533 126.124 62.208C126.465 62.7627 126.721 63.1253 126.892 63.296C127.105 63.424 127.319 63.488 127.532 63.488C128.129 63.616 128.876 63.3387 129.772 62.656C130.711 61.9307 131.884 60.5653 133.292 58.56C134.743 56.512 136.215 53.9307 137.708 50.816C137.879 50.4747 138.113 50.2613 138.412 50.176ZM222.489 51.328C222.788 51.5413 222.959 51.8187 223.001 52.16C223.044 52.5013 222.98 52.8 222.809 53.056C222.553 53.3973 222.212 53.568 221.785 53.568C221.615 53.568 221.444 53.5253 221.273 53.44C220.42 53.2693 216.196 53.056 208.601 52.8C206.511 61.5467 204.825 68.9493 203.545 75.008C200.943 87.0827 199.641 94.8267 199.641 98.24C199.812 97.9413 200.004 97.6213 200.217 97.28C200.388 96.9813 200.644 96.7893 200.985 96.704C201.327 96.6187 201.625 96.6613 201.881 96.832C202.18 97.0027 202.372 97.2373 202.457 97.536C202.543 97.8773 202.5 98.1973 202.329 98.496C201.092 100.587 200.025 101.632 199.129 101.632C198.916 101.632 198.703 101.589 198.489 101.504C197.977 101.291 197.615 100.821 197.401 100.096C197.231 99.4133 197.188 98.0693 197.273 96.064C197.401 94.1013 197.785 91.3707 198.425 87.872C199.065 84.3733 200.004 79.7227 201.241 73.92C202.521 68.16 204.143 61.0987 206.105 52.736C203.204 52.6507 198.873 52.544 193.113 52.416C192.26 52.3733 191.3 52.352 190.233 52.352C183.791 64.5973 178.799 73.152 175.257 78.016C174.319 79.2533 173.38 80.2133 172.441 80.896C171.503 81.5787 170.628 81.9627 169.817 82.048C169.007 82.176 168.324 82.176 167.769 82.048C167.215 81.92 166.681 81.7067 166.169 81.408C163.951 80.128 162.18 77.5253 160.857 73.6C159.577 69.7173 159.001 65.408 159.129 60.672C159.257 55.8933 160.089 51.7333 161.625 48.192C163.545 43.84 166.34 40.9173 170.009 39.424C173.721 37.9307 178.073 37.9733 183.065 39.552C183.407 39.6373 183.641 39.8293 183.769 40.128C183.94 40.4267 183.961 40.7467 183.833 41.088C183.748 41.3867 183.556 41.6213 183.257 41.792C182.959 41.9627 182.639 41.984 182.297 41.856C180.633 41.344 179.012 41.024 177.433 40.896C175.855 40.768 174.191 40.896 172.441 41.28C170.735 41.6213 169.135 42.4747 167.641 43.84C166.148 45.1627 164.889 46.9547 163.865 49.216C163.097 50.9653 162.521 52.9067 162.137 55.04C161.753 57.1733 161.561 59.264 161.561 61.312C161.561 63.36 161.711 65.3653 162.009 67.328C162.308 69.3333 162.713 71.1253 163.225 72.704C163.78 74.3253 164.399 75.712 165.081 76.864C165.807 78.016 166.575 78.8267 167.385 79.296C169.177 80.32 171.14 79.4027 173.273 76.544C176.687 71.936 181.423 63.8507 187.481 52.288C176.388 51.9893 170.329 51.7333 169.305 51.52C168.964 51.4347 168.687 51.264 168.473 51.008C168.303 50.7093 168.239 50.3893 168.281 50.048C168.367 49.7067 168.559 49.4507 168.857 49.28C169.156 49.1093 169.455 49.0453 169.753 49.088C170.692 49.3013 177.028 49.5573 188.761 49.856C190.639 46.1867 193.476 40.64 197.273 33.216C199.748 28.2667 201.775 24.256 203.353 21.184C204.932 18.112 206.468 15.1893 207.961 12.416C209.497 9.64266 210.713 7.552 211.609 6.14399C212.505 4.69333 213.359 3.45599 214.169 2.432C214.98 1.36533 215.641 0.703997 216.153 0.447998C216.708 0.149328 217.241 0.0853271 217.753 0.255997C218.436 0.511996 218.863 1.08799 219.033 1.98399C219.247 2.87999 219.268 4.11733 219.097 5.696C218.841 8.46933 218.095 12.608 216.857 18.112C216.345 20.544 215.044 26.048 212.953 34.624C211.332 41.3653 210.073 46.6133 209.177 50.368C217.497 50.624 221.935 50.944 222.489 51.328ZM193.177 49.92C198.767 50.0907 203.268 50.2187 206.681 50.304C207.833 45.3547 209.113 39.936 210.521 34.048C212.612 25.5147 213.935 20.032 214.489 17.6C216.153 10.048 216.9 5.20533 216.729 3.07199C216.047 3.75466 215.087 5.09866 213.849 7.104C212.655 9.06666 211.119 11.7973 209.241 15.296C207.407 18.7947 205.871 21.76 204.633 24.192C203.396 26.5813 201.668 29.952 199.449 34.304C195.951 41.216 193.305 46.4213 191.513 49.92C191.684 49.92 191.94 49.92 192.281 49.92C192.665 49.92 192.964 49.92 193.177 49.92ZM229.891 61.568C230.873 61.2693 231.427 61.4827 231.555 62.208C231.641 62.976 231.278 63.552 230.467 63.936C230.041 64.1493 229.55 64.256 228.995 64.256C228.099 64.1707 227.886 63.7013 228.355 62.848C228.739 62.208 229.251 61.7813 229.891 61.568Z" fill="white"/>
</svg>
