<svg width="248" height="111" viewBox="0 0 248 111" fill="none" xmlns="http://www.w3.org/2000/svg">
<path d="M46.72 3.584C47.6586 4.13867 48.512 4.8 49.28 5.568C50.0906 6.336 50.88 7.36001 51.648 8.64001C52.416 9.87734 52.992 11.3067 53.376 12.928C53.76 14.5067 54.0373 16.4267 54.208 18.688C54.3786 20.9067 54.2293 23.36 53.76 26.048C52.5653 34.1547 50.304 42.0693 46.976 49.792C43.6906 57.5147 39.5306 64.576 34.496 70.976C30.2293 76.352 25.8346 80.64 21.312 83.84C16.832 87.0827 12.9493 88.704 9.66396 88.704C9.62129 88.704 9.57863 88.704 9.53596 88.704C8.98129 88.704 8.44796 88.64 7.93596 88.512C7.33863 92.096 6.95463 94.8693 6.78396 96.832C6.86929 96.6187 6.95463 96.4053 7.03996 96.192C7.16796 95.8507 7.38129 95.616 7.67996 95.488C8.02129 95.36 8.34129 95.36 8.63996 95.488C8.98129 95.616 9.21596 95.8293 9.34396 96.128C9.47196 96.4693 9.47196 96.7893 9.34396 97.088C8.61863 98.88 7.99996 100.139 7.48796 100.864C7.01863 101.632 6.48529 102.016 5.88796 102.016C5.75996 102.016 5.61063 101.973 5.43996 101.888C4.97063 101.76 4.62929 101.419 4.41596 100.864C4.24529 100.352 4.22396 99.0293 4.35196 96.896C4.52263 94.7627 4.94929 91.648 5.63196 87.552C3.88263 86.3573 2.85863 84.3947 2.55996 81.664C2.51729 81.4507 2.53863 81.2373 2.62396 81.024C2.70929 80.8107 2.83729 80.64 3.00796 80.512C3.22129 80.384 3.43463 80.2987 3.64796 80.256C3.81863 80.256 3.96796 80.2773 4.09596 80.32C4.26663 80.3627 4.41596 80.4267 4.54396 80.512C4.67196 80.64 4.77863 80.768 4.86396 80.896C4.94929 81.024 4.99196 81.1733 4.99196 81.344C5.16263 82.752 5.52529 83.84 6.07996 84.608C7.78663 74.7093 11.2213 57.1307 16.384 31.872C18.6026 20.9067 20.1173 13.376 20.928 9.28001C20.2453 9.70667 19.6053 10.1333 19.008 10.56C17.0026 12.0107 15.1253 13.632 13.376 15.424C11.6266 17.1733 9.96263 19.2 8.38396 21.504C6.84796 23.7653 5.63196 26.1547 4.73596 28.672C3.83996 31.1467 3.24263 33.8347 2.94396 36.736C2.64529 39.5947 2.85863 42.5173 3.58396 45.504C3.62663 45.8453 3.56263 46.1653 3.39196 46.464C3.22129 46.72 2.96529 46.8907 2.62396 46.976C2.28263 47.0187 1.96263 46.9547 1.66396 46.784C1.40796 46.6133 1.23729 46.3573 1.15196 46.016C0.38396 42.816 0.149294 39.68 0.44796 36.608C0.789294 33.4933 1.42929 30.592 2.36796 27.904C3.34929 25.216 4.65063 22.656 6.27196 20.224C7.93596 17.792 9.68529 15.6373 11.52 13.76C13.3973 11.84 15.4026 10.112 17.536 8.576C18.8586 7.63734 20.1813 6.78401 21.504 6.01601C21.8453 4.22401 22.144 2.68801 22.4 1.408C22.4426 1.06667 22.592 0.810671 22.848 0.640007C23.1466 0.426674 23.4666 0.362673 23.808 0.448006C24.1493 0.490674 24.4053 0.661341 24.576 0.960007C24.7893 1.21601 24.8746 1.51467 24.832 1.85601C24.6613 2.624 24.4906 3.54134 24.32 4.60801C28.5013 2.60267 32.5546 1.51467 36.48 1.34401C40.448 1.13067 43.8613 1.87734 46.72 3.584ZM51.328 25.728C52.0106 20.736 51.8613 16.5547 50.88 13.184C49.8986 9.77067 48.0853 7.25334 45.44 5.632C42.752 4.05334 39.488 3.456 35.648 3.84C31.808 4.18134 27.84 5.44 23.744 7.616C22.8906 11.968 21.2266 20.224 18.752 32.384C13.4186 58.5813 9.94129 76.48 8.31996 86.08C8.70396 86.1653 9.10929 86.2293 9.53596 86.272C9.57863 86.272 9.62129 86.272 9.66396 86.272C12.3093 86.272 15.7013 84.8213 19.84 81.92C24.0213 79.0613 28.2453 74.9013 32.512 69.44C34.2186 67.3067 35.8826 64.96 37.504 62.4C39.1253 59.84 40.896 56.704 42.816 52.992C44.736 49.28 46.4426 45.056 47.936 40.32C49.472 35.584 50.6026 30.72 51.328 25.728ZM77.5415 50.88C77.8828 50.752 78.2028 50.7733 78.5015 50.944C78.8001 51.072 78.9921 51.3067 79.0775 51.648C79.2055 51.9467 79.2055 52.2453 79.0775 52.544C74.5121 61.9733 70.4375 66.688 66.8535 66.688C66.6401 66.688 66.4055 66.6667 66.1495 66.624C63.2908 66.0693 61.5201 62.2293 60.8375 55.104C58.7468 57.92 56.8908 60.224 55.2695 62.016C53.8188 63.552 52.5815 64.0853 51.5575 63.616C50.5335 63.232 50.0428 62.1227 50.0855 60.288C50.0855 58.752 50.4268 56.9173 51.1095 54.784C51.7921 52.6507 52.7948 50.5813 54.1175 48.576C55.4401 46.5707 56.8695 45.312 58.4055 44.8C60.6668 43.9893 62.7575 44.736 64.6775 47.04C64.8908 47.296 64.9761 47.5947 64.9335 47.936C64.9335 48.2773 64.8055 48.5547 64.5495 48.768C64.2935 48.9813 63.9948 49.088 63.6535 49.088C63.3121 49.0453 63.0348 48.896 62.8215 48.64C61.3281 46.848 59.8135 46.5067 58.2775 47.616C56.5281 48.8533 55.0561 51.0933 53.8615 54.336C52.7095 57.536 52.2615 59.8187 52.5175 61.184C52.7735 60.9707 53.0721 60.6933 53.4135 60.352C55.1201 58.5173 57.2108 55.8933 59.6855 52.48C60.2401 51.712 60.6241 51.1787 60.8375 50.88C61.1788 50.4533 61.6268 50.3253 62.1815 50.496C62.7361 50.624 63.0348 50.9867 63.0775 51.584C63.1628 53.6747 63.3335 55.5307 63.5895 57.152C63.8455 58.7733 64.1015 60.0107 64.3575 60.864C64.6135 61.6747 64.9121 62.3573 65.2535 62.912C65.5948 63.4667 65.8508 63.8293 66.0215 64C66.2348 64.128 66.4481 64.192 66.6615 64.192C67.2588 64.32 68.0055 64.0427 68.9015 63.36C69.8401 62.6347 71.0135 61.2693 72.4215 59.264C73.8721 57.216 75.3441 54.6347 76.8375 51.52C77.0081 51.1787 77.2428 50.9653 77.5415 50.88ZM89.194 41.408C90.474 41.792 91.3273 42.816 91.754 44.48C92.1806 46.1013 92.1166 48 91.562 50.176C90.538 53.9307 88.0206 57.408 84.01 60.608C82.346 61.9733 80.5113 63.168 78.506 64.192C76.97 70.464 75.2633 78.2507 73.386 87.552C71.466 96.896 70.058 104.277 69.162 109.696C69.034 110.379 68.6286 110.72 67.946 110.72C67.8606 110.72 67.7966 110.72 67.754 110.72C67.5406 110.677 67.3486 110.592 67.178 110.464C67.0073 110.336 66.8793 110.165 66.794 109.952C66.7086 109.739 66.6873 109.525 66.73 109.312C67.8393 101.845 70.2926 87.424 74.09 66.048C73.578 66.2187 73.066 66.368 72.554 66.496C72.2126 66.624 71.8926 66.6027 71.594 66.432C71.2953 66.2613 71.1033 66.0053 71.018 65.664C70.9326 65.3227 70.9753 65.0027 71.146 64.704C71.3166 64.4053 71.5726 64.2133 71.914 64.128C72.7673 63.9147 73.642 63.616 74.538 63.232C74.8366 61.7387 75.242 59.52 75.754 56.576C77.9726 44.1173 79.1033 37.6107 79.146 37.056C79.146 36.7147 79.2526 36.4373 79.466 36.224C79.722 35.968 79.9993 35.84 80.298 35.84C80.6393 35.7973 80.938 35.904 81.194 36.16C81.45 36.3733 81.5993 36.6507 81.642 36.992C81.642 37.3333 80.6393 43.136 78.634 54.4C79.274 52.608 79.914 50.9867 80.554 49.536C81.2366 48.0853 81.8553 46.8907 82.41 45.952C83.0073 45.0133 83.6046 44.224 84.202 43.584C84.7993 42.944 85.3326 42.4747 85.802 42.176C86.2713 41.8347 86.7193 41.6 87.146 41.472C87.6153 41.3013 87.9993 41.2373 88.298 41.28C88.6393 41.28 88.938 41.3227 89.194 41.408ZM89.194 49.536C89.578 47.872 89.6633 46.528 89.45 45.504C89.2793 44.48 88.9593 43.904 88.49 43.776C88.4473 43.7333 88.3833 43.712 88.298 43.712C88.042 43.712 87.7433 43.8187 87.402 44.032C87.1033 44.2027 86.698 44.5653 86.186 45.12C85.674 45.632 85.1406 46.3147 84.586 47.168C84.074 47.9787 83.4766 49.1093 82.794 50.56C82.154 52.0107 81.514 53.6747 80.874 55.552C80.4473 56.832 79.9353 58.624 79.338 60.928C81.77 59.4347 83.8606 57.7067 85.61 55.744C87.402 53.7813 88.5966 51.712 89.194 49.536ZM123.436 50.368C123.778 50.2827 124.076 50.3253 124.332 50.496C124.631 50.6667 124.823 50.9227 124.908 51.264C124.994 51.6053 124.951 51.9253 124.78 52.224C123.372 54.4853 122.028 56.512 120.748 58.304C119.468 60.0533 118.359 61.4827 117.42 62.592C116.524 63.6587 115.65 64.5547 114.796 65.28C113.943 66.048 113.26 66.5813 112.748 66.88C112.236 67.2213 111.724 67.4347 111.212 67.52C110.7 67.648 110.338 67.6907 110.124 67.648C109.954 67.648 109.74 67.6267 109.484 67.584C107.479 67.072 106.348 64.7893 106.092 60.736C106.05 59.84 105.943 59.0933 105.772 58.496C105.602 57.856 105.452 57.4507 105.324 57.28C105.196 57.0667 105.09 56.96 105.004 56.96C104.962 56.96 104.94 56.96 104.94 56.96C104.599 56.96 104.13 57.2373 103.532 57.792C102.935 58.304 102.21 59.1573 101.356 60.352C100.503 61.5467 99.6071 62.9973 98.6685 64.704C97.7298 66.4107 96.6845 68.5653 95.5325 71.168C94.4231 73.7707 93.3351 76.5867 92.2685 79.616C92.0978 80.1707 91.7138 80.448 91.1165 80.448C91.0311 80.448 90.9458 80.448 90.8605 80.448C90.6471 80.4053 90.4765 80.32 90.3485 80.192C90.1778 80.064 90.0498 79.8933 89.9645 79.68C89.8791 79.5093 89.8578 79.3387 89.9005 79.168C89.9858 77.4187 91.1165 71.808 93.2925 62.336C95.4258 52.8213 97.1751 45.184 98.5405 39.424C99.9485 33.6213 101.036 29.184 101.804 26.112C103.255 20.224 104.919 15.2107 106.796 11.072C108.716 6.89067 110.359 4.67201 111.724 4.416C112.45 4.28801 113.004 4.50134 113.388 5.056C114.327 6.336 113.772 9.64267 111.724 14.976C109.719 20.3093 106.583 26.8373 102.316 34.56C99.0311 48.0853 96.4925 58.944 94.7005 67.136C96.5778 63.168 98.4338 60.032 100.268 57.728C102.103 55.3813 103.788 54.3147 105.324 54.528C107.244 54.784 108.311 56.7893 108.524 60.544C108.738 63.4027 109.25 64.9387 110.06 65.152C110.188 65.1947 110.359 65.1947 110.572 65.152C110.828 65.1093 111.319 64.8533 112.044 64.384C112.77 63.9147 113.559 63.232 114.412 62.336C115.266 61.3973 116.418 59.9467 117.868 57.984C119.362 56.0213 120.962 53.6533 122.668 50.88C122.839 50.624 123.095 50.4533 123.436 50.368ZM111.276 8C108.93 11.3707 106.732 16.9387 104.684 24.704C108.439 17.152 110.636 11.584 111.276 8ZM146.455 50.752C146.796 50.6667 147.116 50.7093 147.415 50.88C147.714 51.0507 147.906 51.3067 147.991 51.648C148.076 51.9467 148.034 52.2453 147.863 52.544C146.412 55.104 145.154 57.1307 144.087 58.624C143.02 60.1173 141.932 61.2907 140.823 62.144C139.714 62.9973 138.626 63.36 137.559 63.232C135.426 62.976 133.74 60.672 132.503 56.32C131.607 53.376 130.839 51.904 130.199 51.904C130.071 51.8613 129.879 51.9253 129.623 52.096C129.41 52.224 129.047 52.608 128.535 53.248C128.023 53.8453 127.447 54.6773 126.807 55.744C126.21 56.8107 125.399 58.3893 124.375 60.48C123.394 62.5707 122.327 65.0453 121.175 67.904C120.962 68.416 120.578 68.672 120.023 68.672C119.938 68.672 119.852 68.6507 119.767 68.608C119.042 68.4373 118.722 67.9893 118.807 67.264C119.234 63.7653 120.834 57.2587 123.607 47.744C123.906 46.7627 124.119 46.016 124.247 45.504C124.375 45.1627 124.588 44.928 124.887 44.8C125.186 44.6293 125.484 44.5867 125.783 44.672C126.124 44.7573 126.38 44.9493 126.551 45.248C126.722 45.5467 126.743 45.8667 126.615 46.208C126.53 46.5067 126.316 47.2533 125.975 48.448C125.036 51.7333 124.311 54.2933 123.799 56.128C125.164 53.568 126.359 51.7973 127.383 50.816C128.407 49.8347 129.388 49.3653 130.327 49.408C131.436 49.4507 132.311 50.0267 132.951 51.136C133.634 52.2453 134.274 53.76 134.871 55.68C135.81 58.9653 136.812 60.672 137.879 60.8C138.391 60.8853 139.01 60.608 139.735 59.968C140.503 59.2853 141.314 58.3253 142.167 57.088C143.02 55.808 143.66 54.8053 144.087 54.08C144.556 53.3547 145.09 52.4373 145.687 51.328C145.858 51.0293 146.114 50.8373 146.455 50.752ZM165.234 50.688C165.575 50.6027 165.874 50.6667 166.13 50.88C166.429 51.0507 166.599 51.3067 166.642 51.648C166.685 51.9893 166.621 52.288 166.45 52.544C161.629 59.2853 157.234 64.064 153.266 66.88C151.687 67.9893 150.13 68.544 148.594 68.544C147.399 68.544 146.354 68.224 145.458 67.584C144.946 67.2 144.498 66.688 144.114 66.048C143.687 65.408 143.325 64.512 143.026 63.36C142.727 62.208 142.685 60.6933 142.898 58.816C143.069 56.9387 143.538 54.8053 144.306 52.416V52.352C145.501 48.4693 146.951 45.3973 148.658 43.136C150.365 40.8747 151.901 39.7227 153.266 39.68C154.247 39.6373 154.887 40.064 155.186 40.96C155.655 42.1973 155.101 43.9467 153.522 46.208C151.943 48.4693 149.618 50.9013 146.546 53.504C146.034 55.168 145.671 56.704 145.458 58.112C145.245 59.52 145.159 60.6507 145.202 61.504C145.287 62.3147 145.437 63.04 145.65 63.68C145.906 64.2773 146.119 64.704 146.29 64.96C146.503 65.216 146.717 65.4293 146.93 65.6C148.21 66.5387 149.853 66.2827 151.858 64.832C155.613 62.1867 159.794 57.6213 164.402 51.136C164.615 50.88 164.893 50.7307 165.234 50.688ZM152.818 42.368C151.325 43.3067 149.853 45.3333 148.402 48.448C150.877 45.9733 152.349 43.9467 152.818 42.368ZM246.3 80.384C246.641 80.3413 246.94 80.4267 247.196 80.64C247.495 80.8533 247.644 81.1307 247.644 81.472C247.687 81.8133 247.601 82.1333 247.388 82.432C245.127 85.2053 242.737 86.592 240.22 86.592C240.135 86.592 240.049 86.592 239.964 86.592C239.068 86.592 238.172 86.4 237.276 86.016C236.38 85.6747 235.441 85.0987 234.46 84.288C233.521 83.52 232.689 82.7733 231.964 82.048C231.239 81.3227 230.321 80.256 229.212 78.848C228.145 77.44 227.292 76.3093 226.652 75.456C226.012 74.6027 225.073 73.28 223.836 71.488C222.044 69.0133 220.636 67.0933 219.612 65.728C218.631 64.3627 217.287 62.6773 215.58 60.672C213.873 58.6667 212.252 57.0027 210.716 55.68C208.113 56.32 205.553 56.6187 203.036 56.576C197.831 77.8667 194.823 91.392 194.012 97.152C194.14 96.8533 194.289 96.512 194.46 96.128C194.588 95.8293 194.801 95.616 195.1 95.488C195.441 95.36 195.761 95.36 196.06 95.488C196.401 95.6587 196.615 95.8933 196.7 96.192C196.828 96.5333 196.828 96.8533 196.7 97.152C196.273 98.1333 195.889 98.9227 195.548 99.52C195.249 100.117 194.951 100.651 194.652 101.12C194.353 101.589 194.055 101.931 193.756 102.144C193.5 102.357 193.223 102.464 192.924 102.464C192.753 102.464 192.583 102.421 192.412 102.336C192.028 102.208 191.751 101.973 191.58 101.632C191.409 101.333 191.324 100.651 191.324 99.584C191.324 98.56 191.495 97.0667 191.836 95.104C192.177 93.1413 192.689 90.4747 193.372 87.104C194.097 83.7333 195.036 79.552 196.188 74.56C197.34 69.568 198.791 63.5093 200.54 56.384C198.364 56.128 196.636 55.5733 195.356 54.72C194.076 53.8667 193.265 52.8853 192.924 51.776C192.412 50.2827 192.796 49.0453 194.076 48.064C195.911 46.6133 198.748 46.5707 202.588 47.936C203.143 45.76 203.676 43.5627 204.188 41.344C207.857 26.4107 210.183 16.768 211.164 12.416C211.249 12.0747 211.42 11.8187 211.676 11.648C211.975 11.4347 212.295 11.3707 212.636 11.456C212.977 11.5413 213.233 11.7333 213.404 12.032C213.575 12.288 213.639 12.5867 213.596 12.928C212.615 17.3227 210.289 26.9867 206.62 41.92C205.809 45.0773 205.233 47.424 204.892 48.96C205.959 49.472 207.047 50.048 208.156 50.688C209.18 51.328 210.225 52.0747 211.292 52.928C215.985 51.6053 220.572 49.216 225.052 45.76C229.532 42.304 233.479 37.6747 236.892 31.872C239.623 27.264 241.308 22.848 241.948 18.624C242.588 14.4 242.097 10.9653 240.476 8.32C238.044 4.48 233.415 2.79467 226.588 3.264C223.217 3.47734 219.676 4.20267 215.964 5.44001C212.252 6.63467 208.775 8.14934 205.532 9.984C202.332 11.8187 199.388 13.9307 196.7 16.32C194.055 18.7093 192.028 21.1413 190.62 23.616C187.889 28.3947 187.612 32.9387 189.788 37.248C189.916 37.5467 189.916 37.8667 189.788 38.208C189.703 38.5067 189.511 38.7413 189.212 38.912C188.913 39.04 188.593 39.0613 188.252 38.976C187.953 38.848 187.719 38.6347 187.548 38.336C184.988 33.216 185.287 27.904 188.444 22.4C190.492 18.816 193.564 15.424 197.66 12.224C201.799 9.024 206.407 6.4 211.484 4.35201C216.604 2.30401 221.596 1.10934 226.46 0.768005C234.268 0.256007 239.623 2.34667 242.524 7.04C244.401 10.0693 245.02 13.9307 244.38 18.624C243.783 23.2747 241.991 28.1173 239.004 33.152C234.993 39.9787 229.852 45.5253 223.58 49.792C220.337 52.0533 216.988 53.76 213.532 54.912C214.94 56.2347 216.433 57.856 218.012 59.776C219.633 61.696 220.913 63.3173 221.852 64.64C222.833 65.92 224.156 67.7333 225.82 70.08C227.185 71.9573 228.209 73.3653 228.892 74.304C229.575 75.2853 230.513 76.5013 231.708 77.952C232.903 79.4453 233.884 80.5547 234.652 81.28C235.463 82.0053 236.359 82.6453 237.34 83.2C238.321 83.7973 239.217 84.1173 240.028 84.16C241.82 84.2027 243.655 83.0933 245.532 80.832C245.745 80.576 246.001 80.4267 246.3 80.384ZM195.228 51.072C195.356 51.4987 195.655 51.904 196.124 52.288C196.593 52.672 197.255 53.0347 198.108 53.376C199.004 53.6747 200.007 53.888 201.116 54.016C201.415 52.8213 201.713 51.6267 202.012 50.432C200.263 49.7493 198.812 49.408 197.66 49.408C196.764 49.408 196.06 49.6 195.548 49.984C195.207 50.2827 195.1 50.6453 195.228 51.072ZM203.612 54.08C205.105 54.08 206.62 53.9307 208.156 53.632C207.729 53.3333 207.303 53.056 206.876 52.8C206.065 52.3307 205.191 51.8613 204.252 51.392C203.953 52.6293 203.74 53.5253 203.612 54.08ZM245.333 62.272C246.315 61.9733 246.869 62.1867 246.997 62.912C247.083 63.68 246.72 64.256 245.909 64.64C245.483 64.8533 244.992 64.96 244.437 64.96C243.541 64.8747 243.328 64.4053 243.797 63.552C244.181 62.912 244.693 62.4853 245.333 62.272Z" fill="black"/>
</svg>
