<svg width="257" height="105" viewBox="0 0 257 105" fill="none" xmlns="http://www.w3.org/2000/svg">
<path d="M29.888 1.66401C32.064 3.07201 32.3413 7.16801 30.72 13.952C28.032 25.1307 24.448 40.7893 19.968 60.928C15.488 81.0667 12.8 94.144 11.904 100.16C11.904 100.203 11.904 100.224 11.904 100.224C12.2453 100.309 12.48 100.501 12.608 100.8C12.736 101.141 12.7573 101.461 12.672 101.76C12.416 102.4 12.2027 102.869 12.032 103.168C11.904 103.509 11.6907 103.829 11.392 104.128C11.136 104.469 10.8587 104.64 10.56 104.64C10.3893 104.64 10.24 104.619 10.112 104.576C9.51468 104.363 9.17335 103.872 9.08801 103.104C9.04535 102.379 9.17335 101.227 9.47201 99.648C9.81335 97.5573 10.368 94.528 11.136 90.56C12.5013 83.7333 14.5067 74.3467 17.152 62.4C21.4613 42.8587 25.1733 26.5173 28.288 13.376C28.8853 10.944 29.2053 8.93867 29.248 7.36001C29.2907 5.78134 29.2267 4.82134 29.056 4.48001C28.8853 4.09601 28.7147 3.84001 28.544 3.71201C27.776 3.24268 26.304 3.86134 24.128 5.56801C21.7813 7.40268 19.2 10.1333 16.384 13.76C13.6107 17.3867 11.0507 21.2907 8.70401 25.472C6.40001 29.6107 4.65068 33.8347 3.45601 38.144C2.30401 42.4107 2.17601 45.888 3.07201 48.576C4.30935 52.2453 7.61601 54.1227 12.992 54.208C13.3333 54.208 13.6107 54.336 13.824 54.592C14.08 54.8053 14.208 55.0827 14.208 55.424C14.208 55.7653 14.08 56.064 13.824 56.32C13.6107 56.5333 13.3333 56.64 12.992 56.64C11.7547 56.64 10.56 56.5333 9.40801 56.32C8.29868 56.1067 7.14668 55.744 5.95201 55.232C4.80001 54.72 3.75468 53.9733 2.81601 52.992C1.92001 51.968 1.23735 50.752 0.768014 49.344C0.426681 48.2773 0.213347 47.1253 0.128014 45.888C0.0426805 44.608 0.0640138 43.3493 0.192014 42.112C0.320014 40.8747 0.554681 39.5947 0.896014 38.272C1.23735 36.9067 1.60001 35.6267 1.98401 34.432C2.41068 33.2373 2.88001 32.0213 3.39201 30.784C3.94668 29.504 4.45868 28.3947 4.92801 27.456C5.39735 26.4747 5.88801 25.4933 6.40001 24.512C8.70401 20.2453 11.328 16.192 14.272 12.352C17.2587 8.51201 20.032 5.58934 22.592 3.58401C25.7067 1.19468 28.1387 0.554675 29.888 1.66401ZM57.3245 50.112C57.6658 50.0693 57.9645 50.176 58.2205 50.432C58.4765 50.6453 58.6258 50.9227 58.6685 51.264C58.7112 51.6053 58.6045 51.904 58.3485 52.16C50.0712 61.8027 45.3352 67.3707 44.1405 68.864C43.4152 69.8027 42.7112 70.72 42.0285 71.616C42.6258 74.048 42.6685 76.3947 42.1565 78.656C41.6445 80.9173 40.9192 82.8587 39.9805 84.48C39.0418 86.1013 37.9325 87.424 36.6525 88.448C35.4578 89.472 34.3485 89.984 33.3245 89.984C32.6845 89.984 32.1512 89.7707 31.7245 89.344C29.4632 87.168 32.0018 81.088 39.3405 71.104C38.8712 69.4827 38.1245 67.904 37.1005 66.368C34.9672 63.168 33.3885 60.5013 32.3645 58.368C31.3405 56.2347 30.8712 54.2933 30.9565 52.544C31.0418 50.8373 31.4898 49.3013 32.3005 47.936C33.1538 46.5707 34.2845 45.4613 35.6925 44.608C36.8872 43.8827 38.1458 43.456 39.4685 43.328C40.7912 43.2 42.0072 43.392 43.1165 43.904C43.4152 44.0747 43.6072 44.3307 43.6925 44.672C43.8205 44.9707 43.7992 45.2693 43.6285 45.568C43.5005 45.8667 43.2658 46.08 42.9245 46.208C42.6258 46.2933 42.3272 46.272 42.0285 46.144C40.4925 45.4187 38.8072 45.6107 36.9725 46.72C34.7538 48.0427 33.5805 50.0267 33.4525 52.672C33.3672 54.08 33.8152 55.7653 34.7965 57.728C35.7778 59.648 37.2285 62.0587 39.1485 64.96C39.9592 66.1973 40.6205 67.456 41.1325 68.736C41.4738 68.3093 41.8365 67.84 42.2205 67.328C43.4152 65.8347 48.1725 60.2453 56.4925 50.56C56.7058 50.304 56.9832 50.1547 57.3245 50.112ZM37.4205 83.904C39.2978 81.0453 40.1298 77.9093 39.9165 74.496C38.1245 77.056 36.6738 79.3387 35.5645 81.344C34.4978 83.3493 33.8365 84.7787 33.5805 85.632C33.3672 86.528 33.3032 87.1467 33.3885 87.488C33.7725 87.4453 34.3485 87.104 35.1165 86.464C35.8845 85.8667 36.6525 85.0133 37.4205 83.904ZM82.177 50.56C82.5183 50.4747 82.817 50.5173 83.073 50.688C83.3717 50.8587 83.5637 51.1147 83.649 51.456C83.7343 51.7973 83.6917 52.096 83.521 52.352C81.1317 56.2347 77.8463 59.9893 73.665 63.616C69.4837 67.2 65.9423 68.992 63.041 68.992C62.6997 68.992 62.3797 68.9707 62.081 68.928C60.033 68.544 58.7743 67.072 58.305 64.512C58.2197 64.128 58.2837 63.7867 58.497 63.488C58.753 63.1467 59.265 62.656 60.033 62.016C61.6117 60.6507 62.7637 59.4987 63.489 58.56C64.001 57.8773 64.4277 57.1733 64.769 56.448C65.1103 55.68 65.3237 55.0613 65.409 54.592C65.4943 54.08 65.4943 53.6747 65.409 53.376C64.4277 53.76 63.1477 55.1893 61.569 57.664C60.417 59.456 59.2437 61.696 58.049 64.384C56.897 67.072 56.0223 69.312 55.425 71.104C54.8277 72.896 54.0383 75.3493 53.057 78.464L52.737 79.36C52.5663 79.9147 52.1823 80.192 51.585 80.192C51.4997 80.192 51.4357 80.192 51.393 80.192C51.1797 80.1493 51.009 80.064 50.881 79.936C50.7103 79.8507 50.5823 79.7013 50.497 79.488C50.4117 79.3173 50.369 79.1253 50.369 78.912C50.369 77.9733 51.4783 72.5547 53.697 62.656C55.873 52.7573 58.0277 43.2427 60.161 34.112C60.2037 34.0267 60.225 33.92 60.225 33.792C60.993 30.592 61.5903 28.096 62.017 26.304C63.4677 20.416 65.1317 15.4027 67.009 11.264C68.929 7.12534 70.593 4.90668 72.001 4.60801C72.6837 4.48001 73.2383 4.71468 73.665 5.31201C74.1343 5.86668 74.1983 7.01868 73.857 8.76801C73.5583 10.5173 72.9397 12.6507 72.001 15.168C71.0623 17.6853 69.7823 20.6293 68.161 24C66.5397 27.328 64.6837 30.8907 62.593 34.688C60.5023 43.52 58.4117 52.6933 56.321 62.208C57.345 59.9467 58.3903 57.984 59.457 56.32C61.889 52.5653 63.9797 50.752 65.729 50.88C66.625 50.9653 67.2437 51.4347 67.585 52.288C68.0117 53.184 68.0117 54.3787 67.585 55.872C67.1583 57.3227 66.433 58.7307 65.409 60.096C64.5983 61.12 63.3397 62.3787 61.633 63.872C61.249 64.2133 60.993 64.448 60.865 64.576C61.1637 65.6853 61.7183 66.3253 62.529 66.496C64.449 66.8373 67.4143 65.408 71.425 62.208C75.4783 59.008 78.8063 55.296 81.409 51.072C81.5797 50.7733 81.8357 50.6027 82.177 50.56ZM71.489 8.19201C69.185 11.5627 67.009 17.1307 64.961 24.896C68.673 17.344 70.849 11.776 71.489 8.19201ZM109.492 50.304C109.833 50.2187 110.132 50.2613 110.388 50.432C110.686 50.6027 110.878 50.8587 110.964 51.2C111.049 51.5413 111.006 51.8613 110.836 52.16C109.428 54.4213 108.084 56.448 106.804 58.24C105.524 59.9893 104.414 61.4187 103.476 62.528C102.58 63.5947 101.705 64.4907 100.852 65.216C99.9982 65.984 99.3155 66.5173 98.8035 66.816C98.2915 67.1573 97.7795 67.3707 97.2675 67.456C96.7555 67.584 96.3928 67.6267 96.1795 67.584C96.0088 67.584 95.7955 67.5627 95.5395 67.52C93.5342 67.008 92.4035 64.7253 92.1475 60.672C92.1048 59.776 91.9982 59.0293 91.8275 58.432C91.6568 57.792 91.5075 57.3867 91.3795 57.216C91.2515 57.0027 91.1448 56.896 91.0595 56.896C91.0168 56.896 90.9955 56.896 90.9955 56.896C90.6542 56.896 90.1848 57.1733 89.5875 57.728C88.9902 58.24 88.2648 59.0933 87.4115 60.288C86.5582 61.4827 85.6622 62.9333 84.7235 64.64C83.7848 66.3467 82.7395 68.5013 81.5875 71.104C80.4782 73.7067 79.3902 76.5227 78.3235 79.552C78.1528 80.1067 77.7688 80.384 77.1715 80.384C77.0862 80.384 77.0008 80.384 76.9155 80.384C76.7022 80.3413 76.5315 80.256 76.4035 80.128C76.2328 80 76.1048 79.8293 76.0195 79.616C75.9342 79.4453 75.9128 79.2747 75.9555 79.104C76.0408 77.3547 77.1715 71.744 79.3475 62.272C81.4808 52.7573 83.2302 45.12 84.5955 39.36C86.0035 33.5573 87.0915 29.12 87.8595 26.048C89.3102 20.16 90.9742 15.1467 92.8515 11.008C94.7715 6.82668 96.4142 4.60801 97.7795 4.35201C98.5048 4.22401 99.0595 4.43734 99.4435 4.99201C100.382 6.27201 99.8275 9.57868 97.7795 14.912C95.7742 20.2453 92.6382 26.7733 88.3715 34.496C85.0862 48.0213 82.5475 58.88 80.7555 67.072C82.6328 63.104 84.4888 59.968 86.3235 57.664C88.1582 55.3173 89.8435 54.2507 91.3795 54.464C93.2995 54.72 94.3662 56.7253 94.5795 60.48C94.7928 63.3387 95.3048 64.8747 96.1155 65.088C96.2435 65.1307 96.4142 65.1307 96.6275 65.088C96.8835 65.0453 97.3742 64.7893 98.0995 64.32C98.8248 63.8507 99.6142 63.168 100.468 62.272C101.321 61.3333 102.473 59.8827 103.924 57.92C105.417 55.9573 107.017 53.5893 108.724 50.816C108.894 50.56 109.15 50.3893 109.492 50.304ZM97.3315 7.93601C94.9848 11.3067 92.7875 16.8747 90.7395 24.64C94.4942 17.088 96.6915 11.52 97.3315 7.93601ZM133.534 50.816C133.875 50.688 134.195 50.7093 134.494 50.88C134.793 51.008 134.985 51.2427 135.07 51.584C135.198 51.8827 135.198 52.1813 135.07 52.48C130.505 61.9093 126.43 66.624 122.846 66.624C122.633 66.624 122.398 66.6027 122.142 66.56C119.283 66.0053 117.513 62.1653 116.83 55.04C114.739 57.856 112.883 60.16 111.262 61.952C109.811 63.488 108.574 64.0213 107.55 63.552C106.526 63.168 106.035 62.0587 106.078 60.224C106.078 58.688 106.419 56.8533 107.102 54.72C107.785 52.5867 108.787 50.5173 110.11 48.512C111.433 46.5067 112.862 45.248 114.398 44.736C116.659 43.9253 118.75 44.672 120.67 46.976C120.883 47.232 120.969 47.5307 120.926 47.872C120.926 48.2133 120.798 48.4907 120.542 48.704C120.286 48.9173 119.987 49.024 119.646 49.024C119.305 48.9813 119.027 48.832 118.814 48.576C117.321 46.784 115.806 46.4427 114.27 47.552C112.521 48.7893 111.049 51.0293 109.854 54.272C108.702 57.472 108.254 59.7547 108.51 61.12C108.766 60.9067 109.065 60.6293 109.406 60.288C111.113 58.4533 113.203 55.8293 115.678 52.416C116.233 51.648 116.617 51.1147 116.83 50.816C117.171 50.3893 117.619 50.2613 118.174 50.432C118.729 50.56 119.027 50.9227 119.07 51.52C119.155 53.6107 119.326 55.4667 119.582 57.088C119.838 58.7093 120.094 59.9467 120.35 60.8C120.606 61.6107 120.905 62.2933 121.246 62.848C121.587 63.4027 121.843 63.7653 122.014 63.936C122.227 64.064 122.441 64.128 122.654 64.128C123.251 64.256 123.998 63.9787 124.894 63.296C125.833 62.5707 127.006 61.2053 128.414 59.2C129.865 57.152 131.337 54.5707 132.83 51.456C133.001 51.1147 133.235 50.9013 133.534 50.816ZM158.865 50.56C159.206 50.4747 159.505 50.5173 159.761 50.688C160.059 50.8587 160.251 51.1147 160.337 51.456C160.422 51.7973 160.379 52.096 160.209 52.352C157.819 56.2347 154.534 59.9893 150.353 63.616C146.171 67.2 142.63 68.992 139.729 68.992C139.387 68.992 139.067 68.9707 138.769 68.928C136.721 68.544 135.462 67.072 134.993 64.512C134.907 64.128 134.971 63.7867 135.185 63.488C135.441 63.1467 135.953 62.656 136.721 62.016C138.299 60.6507 139.451 59.4987 140.177 58.56C140.689 57.8773 141.115 57.1733 141.457 56.448C141.798 55.68 142.011 55.0613 142.097 54.592C142.182 54.08 142.182 53.6747 142.097 53.376C141.115 53.76 139.835 55.1893 138.257 57.664C137.105 59.456 135.931 61.696 134.737 64.384C133.585 67.072 132.71 69.312 132.113 71.104C131.515 72.896 130.726 75.3493 129.745 78.464L129.425 79.36C129.254 79.9147 128.87 80.192 128.273 80.192C128.187 80.192 128.123 80.192 128.081 80.192C127.867 80.1493 127.697 80.064 127.569 79.936C127.398 79.8507 127.27 79.7013 127.185 79.488C127.099 79.3173 127.057 79.1253 127.057 78.912C127.057 77.9733 128.166 72.5547 130.385 62.656C132.561 52.7573 134.715 43.2427 136.849 34.112C136.891 34.0267 136.913 33.92 136.913 33.792C137.681 30.592 138.278 28.096 138.705 26.304C140.155 20.416 141.819 15.4027 143.697 11.264C145.617 7.12534 147.281 4.90668 148.689 4.60801C149.371 4.48001 149.926 4.71468 150.353 5.31201C150.822 5.86668 150.886 7.01868 150.545 8.76801C150.246 10.5173 149.627 12.6507 148.689 15.168C147.75 17.6853 146.47 20.6293 144.849 24C143.227 27.328 141.371 30.8907 139.281 34.688C137.19 43.52 135.099 52.6933 133.009 62.208C134.033 59.9467 135.078 57.984 136.145 56.32C138.577 52.5653 140.667 50.752 142.417 50.88C143.313 50.9653 143.931 51.4347 144.273 52.288C144.699 53.184 144.699 54.3787 144.273 55.872C143.846 57.3227 143.121 58.7307 142.097 60.096C141.286 61.12 140.027 62.3787 138.321 63.872C137.937 64.2133 137.681 64.448 137.553 64.576C137.851 65.6853 138.406 66.3253 139.217 66.496C141.137 66.8373 144.102 65.408 148.113 62.208C152.166 59.008 155.494 55.296 158.097 51.072C158.267 50.7733 158.523 50.6027 158.865 50.56ZM148.177 8.19201C145.873 11.5627 143.697 17.1307 141.649 24.896C145.361 17.344 147.537 11.776 148.177 8.19201ZM252.131 19.712C252.6 22.4853 252.195 26.688 250.915 32.32C249.678 37.952 247.886 43.8613 245.539 50.048C243.235 56.2347 240.27 62.3147 236.643 68.288C233.016 74.2613 229.304 78.7627 225.507 81.792C222.52 84.1813 220.003 84.864 217.955 83.84C216.803 83.2853 215.864 82.2613 215.139 80.768C214.456 79.3173 213.966 77.2907 213.667 74.688C213.368 72.128 213.176 69.6107 213.091 67.136C213.048 64.6613 213.07 61.44 213.155 57.472C213.24 50.1333 213.048 45.9093 212.579 44.8C211.982 45.3547 211.128 46.592 210.019 48.512C200.76 64.9813 193.55 76.9707 188.387 84.48C185.87 88.1067 183.864 90.6453 182.371 92.096C180.92 93.5467 179.747 94.272 178.851 94.272C178.552 94.272 178.254 94.208 177.955 94.08C177.528 93.8667 177.187 93.568 176.931 93.184C176.718 92.8427 176.59 92.1387 176.547 91.072C176.462 90.048 176.568 88.704 176.867 87.04C177.166 85.376 177.699 83.0507 178.467 80.064C179.278 77.12 180.323 73.6 181.603 69.504C185.144 58.4533 190.286 44.1387 197.027 26.56C197.966 24.128 198.862 21.888 199.715 19.84C200.568 17.792 201.315 16.064 201.955 14.656C202.595 13.2053 203.214 11.9253 203.811 10.816C204.408 9.66401 204.899 8.74668 205.283 8.06401C205.71 7.33868 206.115 6.74134 206.499 6.27201C206.926 5.76001 207.246 5.39734 207.459 5.18401C207.715 4.97068 207.971 4.82134 208.227 4.73601C208.526 4.65068 208.718 4.60801 208.803 4.60801C208.931 4.60801 209.102 4.62934 209.315 4.67201C209.87 4.80001 210.296 5.16268 210.595 5.76001C210.894 6.31468 211.043 7.06134 211.043 8.00001C211.086 8.89601 211.064 9.96268 210.979 11.2C210.979 11.5413 210.851 11.8187 210.595 12.032C210.339 12.2453 210.04 12.352 209.699 12.352C209.358 12.3093 209.08 12.16 208.867 11.904C208.654 11.648 208.547 11.3493 208.547 11.008C208.632 9.51468 208.632 8.38401 208.547 7.61601C206.584 10.048 203.512 16.6613 199.331 27.456C197.155 33.1733 195.128 38.5493 193.251 43.584C191.416 48.6187 189.838 53.0347 188.515 56.832C187.192 60.6293 185.998 64.1493 184.931 67.392C183.864 70.6347 182.99 73.3653 182.307 75.584C181.667 77.8453 181.112 79.8933 180.643 81.728C180.174 83.5627 179.811 85.0347 179.555 86.144C179.342 87.2533 179.171 88.2133 179.043 89.024C178.958 89.8773 178.915 90.4747 178.915 90.816C178.958 91.2 179 91.4987 179.043 91.712C180.536 90.9867 183.267 87.6587 187.235 81.728C192.312 74.2187 199.203 62.7413 207.907 47.296C209.059 45.248 210.04 43.84 210.851 43.072C211.662 42.304 212.472 42.0267 213.283 42.24C214.392 42.5387 215.075 43.7547 215.331 45.888C215.587 47.9787 215.672 51.8613 215.587 57.536C215.502 59.712 215.48 62.1227 215.523 64.768C215.608 67.4133 215.715 69.888 215.843 72.192C216.014 74.5387 216.355 76.5867 216.867 78.336C217.422 80.0853 218.147 81.1733 219.043 81.6C220.152 82.1547 221.795 81.5787 223.971 79.872C227.555 77.0133 231.075 72.704 234.531 66.944C238.03 61.184 240.91 55.3173 243.171 49.344C245.475 43.328 247.246 37.6107 248.483 32.192C249.72 26.7307 250.126 22.6987 249.699 20.096C249.528 18.9867 249.23 18.368 248.803 18.24C248.206 18.0267 247.182 18.5813 245.731 19.904C245.475 20.1173 245.176 20.224 244.835 20.224C244.494 20.1813 244.195 20.032 243.939 19.776C243.726 19.52 243.619 19.2213 243.619 18.88C243.662 18.5387 243.811 18.2613 244.067 18.048C246.286 16.0853 248.142 15.36 249.635 15.872C250.958 16.3413 251.79 17.6213 252.131 19.712ZM254.639 62.208C255.62 61.9093 256.175 62.1227 256.303 62.848C256.388 63.616 256.025 64.192 255.215 64.576C254.788 64.7893 254.297 64.896 253.743 64.896C252.847 64.8107 252.633 64.3413 253.103 63.488C253.487 62.848 253.999 62.4213 254.639 62.208Z" fill="white"/>
</svg>
