<svg width="356" height="164" viewBox="0 0 356 164" fill="none" xmlns="http://www.w3.org/2000/svg">
<path d="M162.546 28.138C163.989 28.1374 164.191 28.5122 165.268 29.5013C166.073 38.3559 158.065 53.4619 153.896 61.4899C150.198 68.6095 149.807 69.3744 147.869 77.5297L144.442 92.0198L141.504 104.701C141.072 106.551 140.146 110.066 139.943 111.853C140.879 111.457 145.168 98.1947 153.33 95.6317C159.731 97.8852 157.486 103.672 159.234 108.874C159.989 111.121 162.254 109.763 163.458 108.764C169.187 104.012 172.768 97.1733 177.179 91.3029C177.516 90.9104 178.583 89.6907 179.082 89.583C182.582 88.8443 180.622 94.1677 180.316 95.7905C178.278 106.566 178.579 113.063 189.433 102.432C195.405 96.5819 199.498 91.2112 202.3 83.1917C202.535 82.5151 203.022 82.0023 203.736 81.7572C206.337 81.9369 205.503 84.2586 204.905 85.8089C202.424 92.2412 199.923 98.8707 198.644 105.651C198.642 105.707 198.642 105.762 198.64 105.817C199.972 102.861 208.697 87.1 211.826 87.8504C214.925 89.7679 211.706 99.7377 214.072 104.001L214.187 104.202C216.274 100.89 221.583 86.9819 225.197 86.967C228.666 88.1093 226.38 97.0183 229.079 99.7868C229.529 100.247 229.958 100.629 230.676 100.584C235.595 100.275 241.026 93.4421 244.389 90.241C245.312 90.638 245.944 90.779 246.365 91.6454C246.361 92.6824 245.651 93.7788 244.943 94.5056C240.525 99.034 236.66 103.592 229.994 104.05C225.137 102.047 223.398 97.5184 224.076 92.4396C221.485 96.8542 219.459 103.036 216.068 106.815C215.584 107.33 214.293 108.133 213.593 107.956C208.982 106.791 209.46 96.8885 209.825 93.692C206.12 100.107 201.658 106.344 198.319 113.065C197.745 114.221 196.691 115.484 195.275 115.303C192.389 113.389 195.529 102.797 196.52 100.102C191.406 104.936 188.416 109.991 180.703 111.505C174.929 109.557 175.482 103.279 176.459 98.2713C172.984 103.841 159.51 123.102 155.41 107.705C154.632 104.782 155.357 102.099 153.564 99.1166L153.42 98.8788C146.566 103.236 141.789 116.534 138.591 123.685C137.688 125.706 136.957 130.589 134.515 130.793C133.191 130.28 132.947 128.827 133.2 127.594C134.821 119.692 136.208 109.939 138.655 102.362C136.315 105.723 132.072 111.9 127.595 112.175C120.866 112.587 119.446 101.63 119.064 96.6819L118.638 97.2258C116.78 99.5917 110.635 108.125 107.859 108.321C107.098 108.372 106.347 108.12 105.77 107.62C104.576 106.595 105.027 105.642 104.604 105.234C103.929 105.853 100.882 111.294 99.8189 112.823C96.5135 117.455 92.4734 124.146 86.8596 126.073C84.3597 126.93 83.0042 122.866 82.7128 121.044C82.2718 113.458 86.6095 97.7418 89.4396 90.2775C85.6376 92.7498 80.6868 95.9953 76.0781 93.9986C68.5431 105.564 57.7011 113.273 44.9822 118.309C42.9012 119.132 42.0266 120.1 39.8499 119.25C38.7316 120.356 38.4968 126.416 35.6945 126.917C35.4149 126.862 34.8997 126.756 34.7735 126.536C33.5953 124.481 35.4632 117.48 35.8561 115.613C36.8841 110.716 37.9559 105.829 39.0711 100.952C41.2644 90.9589 43.527 80.9813 45.8584 71.0197C48.7527 58.527 51.4975 45.643 57.4821 34.2029C58.3888 32.4698 60.4823 29.111 62.6112 28.6863C63.7537 28.4583 64.4851 29.4335 65.1616 30.2052C66.2901 37.5908 57.9668 53.495 54.6722 60.2729C53.4418 62.8044 51.2921 66.0222 50.2853 68.6608C49.1606 71.6079 48.3861 75.6243 47.6617 78.7406C46.2922 84.6076 44.9599 90.4832 43.6649 96.3673C42.8206 100.183 42.0902 104.206 40.912 107.898C43.0557 104.309 44.1697 101.6 47.1275 97.7858C49.5483 94.6642 57.2368 86.6185 59.0757 95.4221C59.8464 99.1112 56.2144 107.254 53.6315 110.495C63.1494 104.171 66.6749 101.296 73.4461 92.0872C68.9538 85.6759 74.4878 76.9715 79.4879 72.6415C80.9579 71.3684 84.4576 70.2969 85.3374 72.3415C87.1038 76.4469 82.7495 82.9166 81.1376 86.7217C80.394 88.4412 79.2083 89.6397 78.9639 91.2016C81.1434 92.0752 88.2221 86.5431 90.6421 85.8329C92.7363 85.1178 93.6183 87.0502 93.2128 88.8969C91.2019 98.0553 84.3266 113.825 86.524 122.831C88.5979 121.641 89.4533 120.666 91.0045 118.957C99.687 109.393 104.085 97.3175 110.803 86.5956C113.646 82.0584 119.498 80.6462 123.308 84.8085C123.899 85.4537 124.35 85.6023 124.567 86.5944C124.474 87.2315 124.381 87.4854 123.921 87.9601C122.08 89.8609 120.744 85.8863 118.65 85.7501C117.242 85.6584 115.674 86.2206 114.647 87.2418C110.323 91.5369 108.08 99.1788 107.706 105.033C108.239 104.416 108.745 103.843 109.365 103.21C113.101 99.3917 115.75 94.4693 119.421 90.704C119.833 90.2805 120.464 90.3852 120.972 90.4848C123.423 92.3293 122.107 108.174 126.981 108.804C131.534 109.393 139.672 94.1057 141.167 90.1898C142.367 87.0494 142.822 83.0084 143.652 80.08C147.138 67.7822 152.283 34.9291 162.546 28.138ZM41.3474 116.201C42.514 115.556 48.9003 112.261 49.4141 111.844C49.6339 111.016 49.3269 110.692 49.8656 109.997C52.2391 106.935 56.5802 98.8039 55.4906 95.029L55.0468 94.8201C49.424 98.5841 46.5773 104.886 43.4285 110.546C42.9532 111.4 41.0383 111.939 40.7199 112.891L40.637 113.135C40.0416 114.936 40.8059 114.756 41.3474 116.201ZM75.6785 89.1392C78.0694 86.1797 81.1314 78.9036 82.3746 75.1684L81.995 75.0226C78.9051 77.3169 75.895 81.8912 75.239 85.7128C75.1033 86.5046 75.0485 88.5696 75.6785 89.1392ZM53.2509 55.4674C54.9122 52.5529 61.9064 36.2598 61.5186 34.1109C58.1658 39.4938 56.0636 46.085 54.1491 52.107C53.9388 52.7682 53.1676 54.9336 53.2509 55.4674ZM153.561 54.6632C154.86 51.956 162.131 35.9433 161.548 34.0945C159.822 36.0809 153.191 52.301 153.561 54.6632Z" fill="white"/>
<path d="M320.318 24.9968C323.136 24.919 326.062 26.0994 327.486 28.6616C332.108 36.9821 329.766 47.9679 328.151 56.8251C327.652 59.5646 326.908 64.0003 325.071 65.9821C324.688 66.376 323.196 65.6761 323.138 64.9437C322.857 62.2261 324.227 59.3336 324.618 56.6597C325.626 49.7819 330.249 31.4226 321.355 28.1988C312.737 29.403 303.197 44.5562 299.138 51.5974C287.771 71.3177 278.413 92.6868 276.53 115.58C274.731 137.443 284.08 146.677 300.87 129.15C311.817 118.014 315.9 108.035 323.332 95.0471C313.529 95.7723 303.604 97.2304 293.819 98.1943C290.867 98.3068 291.316 94.8943 293.867 94.6929C303.997 93.8945 314.554 92.0308 324.646 91.5417C325.476 90.7283 326.07 89.9309 327.221 89.9361C327.977 90.1732 328.071 90.3593 328.617 90.9483C331.067 90.5488 333.52 90.1621 335.975 89.7879C337.415 89.4893 343.09 87.5981 344.643 88.0764C345.73 88.4124 346.273 90.11 344.568 90.8564C339.434 93.1068 333.296 93.4778 327.927 94.5116C325.231 108.075 322.183 121.599 320.119 135.305C319.287 140.839 317.733 148.383 317.444 153.86C318.31 154.15 319.085 154.339 319.728 154.97C320.549 156.831 316.413 164.82 314.311 160.975C312.936 158.457 314.299 150.509 314.684 147.641C315.575 141.05 316.63 134.482 317.847 127.943C319.145 120.693 320.761 110.79 322.57 103.815C319.554 109.479 316.191 114.951 312.502 120.202C306.895 128.197 297.652 139.631 287.478 141.618C279.588 143.159 274.251 135.148 273.543 128.051C270.429 96.9232 286.473 64.025 303.494 38.8167C307.316 33.1559 313.509 26.087 320.318 24.9968Z" fill="white"/>
<path d="M37.188 23.9742C38.5567 23.8322 40.6968 24.7084 41.3135 25.8616C44.5237 31.8662 40.9391 42.6115 39.4969 48.7479L34.5559 70.0414C30.8135 86.3782 27.1578 102.735 23.5896 119.11C20.8708 131.601 18.032 144.53 15.934 157.134C16.3381 157.728 16.7789 158.553 17.1437 159.191C16.4687 160.776 15.4767 163.396 13.5001 163.548C10.7792 162.127 13.0545 153.35 13.515 150.808C14.6274 144.759 15.8347 138.728 17.1361 132.717C20.5553 116.699 24.0653 100.701 27.6654 84.7235C29.134 78.1267 31.0312 70.6511 32.2825 64.0994C33.5405 59.2564 34.67 53.7624 35.8567 48.9039C36.7022 45.442 40.7884 30.0625 38.361 27.5652C34.9797 26.0232 26.5038 35.2235 24.5669 37.7354C14.5135 50.7726 3.05464 67.4409 3.41061 84.5494C3.51289 89.466 7.00348 93.5652 11.6548 94.7112C13.7213 95.2444 17.1696 95.1235 18.8502 96.5245C19.4224 97.8708 18.2225 98.2753 17.1632 98.7827C9.12671 98.0106 1.64878 95.8928 0.299271 86.5499C-1.77763 72.1696 7.36627 56.1711 15.0281 44.6653C19.6033 37.7948 28.8549 25.4723 37.188 23.9742Z" fill="white"/>
<path d="M36.3721 0.0231239C39.98 -0.305574 40.5296 2.95753 36.8113 4.24645C35.9831 4.45943 35.3453 4.47869 34.5852 4.09123C33.4642 2.48404 35.233 1.00922 36.3721 0.0231239Z" fill="white"/>
<path d="M181.342 79.2839C184.95 78.9552 185.5 82.2183 181.782 83.5072C180.953 83.7202 180.316 83.7394 179.555 83.352C178.434 81.7448 180.203 80.27 181.342 79.2839Z" fill="white"/>
<path d="M354.073 105.964C354.919 106.12 355.302 106.236 355.834 106.895C356.174 108.829 354.193 109.508 352.697 109.951C352.031 109.871 352.007 109.869 351.443 109.525C350.804 108.06 352.891 106.51 354.073 105.964Z" fill="white"/>
</svg>
