<svg width="250" height="105" viewBox="0 0 250 105" fill="none" xmlns="http://www.w3.org/2000/svg">
<path d="M248.195 60.3081C249.177 60.0094 249.731 60.2228 249.859 60.9481C249.945 61.7161 249.582 62.2921 248.771 62.6761C248.345 62.8894 247.854 62.9961 247.299 62.9961C246.403 62.9108 246.19 62.4414 246.659 61.5881C247.043 60.9481 247.555 60.5214 248.195 60.3081Z" fill="white"/>
<path d="M241.491 46.6121C241.832 46.7401 242.067 46.9535 242.195 47.2521C242.366 47.5508 242.387 47.8708 242.259 48.2121C242.131 48.5108 241.918 48.7241 241.619 48.8521C239.443 49.8335 235.283 50.7294 229.139 51.5401C227.518 58.7508 225.918 66.8361 224.339 75.7961C222.76 84.7561 221.736 91.4548 221.267 95.8921C221.608 95.7215 221.95 95.7001 222.291 95.8281C222.504 95.9134 222.675 96.0415 222.803 96.2121C222.974 96.3828 223.059 96.5535 223.059 96.7241C223.102 96.9375 223.102 97.1721 223.059 97.4281C222.504 98.9215 222.035 99.9881 221.651 100.628C221.267 101.311 220.798 101.652 220.243 101.652C220.115 101.652 219.966 101.631 219.795 101.588C219.155 101.375 218.771 100.799 218.643 99.8601C218.558 98.9214 218.664 97.1081 218.963 94.4201C219.347 91.0495 220.008 86.5268 220.947 80.8521C222.184 73.4708 223.592 66.0255 225.171 58.5161C219.71 68.5001 214.291 75.9668 208.915 80.9161C203.582 85.8654 198.952 87.6148 195.027 86.1641C191.358 84.7988 189.203 80.9161 188.563 74.5161C187.923 68.1588 188.904 60.1801 191.507 50.5801C193.47 43.3694 196.798 35.1774 201.491 26.0041C206.227 16.7881 210.963 9.66278 215.699 4.62812C217.662 2.53745 219.603 1.15078 221.523 0.468116C223.486 -0.214552 225.214 -0.150553 226.707 0.660113C227.347 1.04411 227.923 1.57745 228.435 2.26012C228.99 2.90012 229.502 3.94545 229.971 5.39611C230.44 6.84678 230.696 8.57478 230.739 10.5801C230.824 12.5854 230.632 15.2308 230.163 18.5161C229.736 21.8014 228.968 25.4708 227.859 29.5241C227.774 29.8655 227.582 30.1215 227.283 30.2921C226.984 30.4628 226.664 30.5054 226.323 30.4201C226.024 30.3348 225.79 30.1428 225.619 29.8441C225.448 29.5455 225.406 29.2255 225.491 28.8841C226.899 23.6361 227.752 19.0708 228.051 15.1881C228.392 11.2628 228.307 8.36145 227.795 6.48411C227.326 4.60678 226.558 3.39078 225.491 2.83612C224.552 2.28145 223.358 2.32411 221.907 2.96411C220.499 3.60411 219.027 4.71345 217.491 6.29211C212.883 11.1988 208.275 18.1534 203.667 27.1561C199.059 36.1161 195.795 44.1374 193.875 51.2201C191.315 60.6494 190.355 68.3721 190.995 74.3881C191.55 79.7214 193.192 82.8788 195.923 83.8601C196.691 84.1588 197.566 84.2441 198.547 84.1161C199.528 83.9881 200.552 83.6681 201.619 83.1561C202.728 82.6441 203.88 81.9188 205.075 80.9801C206.312 80.0415 207.571 78.9321 208.851 77.6521C214.483 71.9348 220.136 63.3588 225.811 51.9241C224.062 52.0948 221.331 52.3721 217.619 52.7561C211.304 53.3961 206.654 53.9295 203.667 54.3561C203.624 54.3561 203.582 54.3561 203.539 54.3561C203.24 54.3561 202.963 54.2495 202.707 54.0361C202.494 53.8228 202.366 53.5668 202.323 53.2681C202.28 53.0548 202.302 52.8414 202.387 52.6281C202.472 52.4148 202.6 52.2441 202.771 52.1161C202.942 51.9881 203.134 51.9028 203.347 51.8601C206.376 51.4761 211.048 50.9641 217.363 50.3241C221.8 49.8548 225.043 49.5135 227.091 49.3001C227.091 49.2575 227.112 49.1934 227.155 49.1081C227.198 48.9801 227.24 48.8948 227.283 48.8521C227.582 48.1695 228.094 47.9561 228.819 48.2121C229.16 48.3401 229.416 48.5961 229.587 48.9801C235.091 48.2548 238.76 47.4655 240.595 46.6121C240.894 46.4841 241.192 46.4841 241.491 46.6121Z" fill="white"/>
<path d="M167.653 48.9161C167.995 48.7881 168.315 48.8094 168.613 48.9801C168.912 49.1081 169.104 49.3428 169.189 49.6841C169.317 49.9828 169.317 50.2814 169.189 50.5801C164.624 60.0094 160.549 64.7241 156.965 64.7241C156.752 64.7241 156.517 64.7028 156.261 64.6601C153.403 64.1054 151.632 60.2654 150.949 53.1401C148.859 55.9561 147.003 58.2601 145.381 60.0521C143.931 61.5881 142.693 62.1214 141.669 61.6521C140.645 61.2681 140.155 60.1588 140.197 58.3241C140.197 56.7881 140.539 54.9534 141.221 52.8201C141.904 50.6868 142.907 48.6174 144.229 46.6121C145.552 44.6068 146.981 43.3481 148.517 42.8361C150.779 42.0254 152.869 42.7721 154.789 45.0761C155.003 45.3321 155.088 45.6308 155.045 45.9721C155.045 46.3134 154.917 46.5908 154.661 46.8041C154.405 47.0174 154.107 47.1241 153.765 47.1241C153.424 47.0814 153.147 46.9321 152.933 46.6761C151.44 44.8841 149.925 44.5428 148.389 45.6521C146.64 46.8894 145.168 49.1294 143.973 52.3721C142.821 55.5721 142.373 57.8548 142.629 59.2201C142.885 59.0068 143.184 58.7294 143.525 58.3881C145.232 56.5534 147.323 53.9294 149.797 50.5161C150.352 49.7481 150.736 49.2148 150.949 48.9161C151.291 48.4894 151.739 48.3614 152.293 48.5321C152.848 48.6601 153.147 49.0228 153.189 49.6201C153.275 51.7108 153.445 53.5668 153.701 55.1881C153.957 56.8094 154.213 58.0468 154.469 58.9001C154.725 59.7108 155.024 60.3934 155.365 60.9481C155.707 61.5028 155.963 61.8654 156.133 62.0361C156.347 62.1641 156.56 62.2281 156.773 62.2281C157.371 62.3561 158.117 62.0788 159.013 61.3961C159.952 60.6708 161.125 59.3054 162.533 57.3001C163.984 55.2521 165.456 52.6708 166.949 49.5561C167.12 49.2148 167.355 49.0014 167.653 48.9161Z" fill="white"/>
<path d="M143.611 48.4041C143.952 48.3188 144.251 48.3615 144.507 48.5321C144.805 48.7028 144.997 48.9588 145.083 49.3001C145.168 49.6415 145.125 49.9615 144.955 50.2601C143.547 52.5215 142.203 54.5481 140.923 56.3401C139.643 58.0895 138.533 59.5188 137.595 60.6281C136.699 61.6948 135.824 62.5908 134.971 63.3161C134.117 64.0841 133.435 64.6175 132.923 64.9161C132.411 65.2575 131.899 65.4708 131.387 65.5561C130.875 65.6841 130.512 65.7268 130.299 65.6841C130.128 65.6841 129.915 65.6628 129.659 65.6201C127.653 65.1081 126.523 62.8255 126.267 58.7721C126.224 57.8761 126.117 57.1295 125.947 56.5321C125.776 55.8921 125.627 55.4868 125.499 55.3161C125.371 55.1028 125.264 54.9961 125.179 54.9961C125.136 54.9961 125.115 54.9961 125.115 54.9961C124.773 54.9961 124.304 55.2735 123.707 55.8281C123.109 56.3401 122.384 57.1935 121.531 58.3881C120.677 59.5828 119.781 61.0335 118.843 62.7401C117.904 64.4468 116.859 66.6015 115.707 69.2041C114.597 71.8068 113.509 74.6228 112.443 77.6521C112.272 78.2068 111.888 78.4841 111.291 78.4841C111.205 78.4841 111.12 78.4841 111.035 78.4841C110.821 78.4415 110.651 78.3561 110.523 78.2281C110.352 78.1001 110.224 77.9295 110.139 77.7161C110.053 77.5455 110.032 77.3748 110.075 77.2041C110.16 75.4548 111.291 69.8441 113.467 60.3721C115.6 50.8575 117.349 43.2201 118.715 37.4601C120.123 31.6575 121.211 27.2201 121.979 24.1481C123.429 18.2601 125.093 13.2468 126.971 9.10814C128.891 4.92681 130.533 2.70814 131.899 2.45214C132.624 2.32414 133.179 2.53747 133.563 3.09214C134.501 4.37214 133.947 7.6788 131.899 13.0121C129.893 18.3455 126.757 24.8735 122.491 32.5961C119.205 46.1215 116.667 56.9801 114.875 65.1721C116.752 61.2041 118.608 58.0681 120.443 55.7641C122.277 53.4175 123.963 52.3508 125.499 52.5641C127.419 52.8201 128.485 54.8255 128.699 58.5801C128.912 61.4388 129.424 62.9748 130.235 63.1881C130.363 63.2308 130.533 63.2308 130.747 63.1881C131.003 63.1455 131.493 62.8895 132.219 62.4201C132.944 61.9508 133.733 61.2681 134.587 60.3721C135.44 59.4335 136.592 57.9828 138.043 56.0201C139.536 54.0575 141.136 51.6895 142.843 48.9161C143.013 48.6601 143.269 48.4895 143.611 48.4041ZM131.451 6.03614C129.104 9.40681 126.907 14.9748 124.859 22.7401C128.613 15.1881 130.811 9.62014 131.451 6.03614Z" fill="white"/>
<path d="M116.646 48.4681C116.988 48.3828 117.286 48.4468 117.542 48.6601C117.841 48.8308 118.033 49.0868 118.118 49.4281C118.204 49.7695 118.14 50.0681 117.926 50.3241C116.518 52.5001 115.281 54.3348 114.214 55.8281C113.19 57.3215 112.017 58.9215 110.694 60.6281C109.372 62.2921 108.156 63.6148 107.046 64.5961C105.98 65.6201 104.849 66.4521 103.654 67.0921C102.46 67.7748 101.329 68.1161 100.262 68.1161C99.8783 68.1161 99.4943 68.0735 99.1103 67.9881C97.5743 67.6468 96.401 66.7508 95.5903 65.3001C94.737 63.3801 94.3743 61.2895 94.5023 59.0281C94.5877 56.7241 95.0357 54.4628 95.8463 52.2441C96.6997 49.8975 97.7663 48.0841 99.0463 46.8041C100.369 45.5241 101.606 45.0761 102.758 45.4601C103.014 45.5455 103.249 45.6735 103.462 45.8441C103.676 45.9721 103.932 46.2708 104.23 46.7401C104.529 47.1668 104.678 47.7428 104.678 48.4681C104.678 49.1935 104.55 50.1321 104.294 51.2841C104.209 51.6255 104.017 51.8815 103.718 52.0521C103.462 52.2228 103.164 52.2655 102.822 52.1801C102.481 52.0948 102.225 51.9028 102.054 51.6041C101.884 51.3055 101.841 51.0068 101.926 50.7081C102.353 49.0868 102.374 48.1055 101.99 47.7641C101.82 47.7641 101.542 47.8921 101.158 48.1481C100.817 48.4041 100.348 48.9801 99.7503 49.8761C99.153 50.7295 98.6197 51.8175 98.1503 53.1401C97.3823 55.1455 96.9557 57.1935 96.8703 59.2841C96.8277 61.3321 97.1263 62.9321 97.7663 64.0841C98.193 64.8948 98.8117 65.3855 99.6223 65.5561C100.348 65.7268 101.158 65.6201 102.054 65.2361C102.993 64.8521 103.974 64.1695 104.998 63.1881C106.065 62.1641 107.025 61.1828 107.878 60.2441C108.732 59.2628 109.713 57.9828 110.822 56.4041C111.974 54.7828 112.849 53.5455 113.446 52.6921C114.044 51.7961 114.854 50.5588 115.878 48.9801C116.049 48.7241 116.305 48.5535 116.646 48.4681Z" fill="white"/>
<path d="M98.0268 48.4681C98.3682 48.3828 98.6882 48.4255 98.9868 48.5961C99.2855 48.7668 99.4562 49.0228 99.4988 49.3641C99.5842 49.7055 99.5415 50.0255 99.3708 50.3241C98.1762 52.2015 96.7255 54.1641 95.0188 56.2121C93.3548 58.2175 91.4562 60.0308 89.3228 61.6521C87.2322 63.2735 85.4615 64.0841 84.0108 64.0841C83.4988 64.0841 83.0508 63.9988 82.6668 63.8281C79.8082 62.5908 79.5095 57.5775 81.7708 48.7881C81.8562 48.4468 82.0482 48.1908 82.3468 48.0201C82.6455 47.8495 82.9442 47.8068 83.2428 47.8921C83.5842 47.9775 83.8402 48.1695 84.0108 48.4681C84.1815 48.7668 84.2242 49.0655 84.1388 49.3641C83.6268 51.4121 83.2428 53.2255 82.9868 54.8041C82.7735 56.3401 82.6668 57.5135 82.6668 58.3241C82.7095 59.1348 82.7948 59.8175 82.9228 60.3721C83.0935 60.8841 83.2215 61.2041 83.3068 61.3321C83.4348 61.4175 83.5415 61.4815 83.6268 61.5241C84.7362 61.9935 86.7415 60.8841 89.6428 58.1961C92.5868 55.5081 95.1255 52.4361 97.2588 48.9801C97.4722 48.7241 97.7282 48.5535 98.0268 48.4681ZM83.8828 43.4761C82.6455 43.3908 82.2615 42.8788 82.7308 41.9401C83.1575 41.1721 83.7122 40.6601 84.3948 40.4041C85.4615 40.0628 86.1015 40.3401 86.3148 41.2361C86.5282 42.0895 86.2082 42.7295 85.3548 43.1561C84.9282 43.3695 84.4375 43.4761 83.8828 43.4761Z" fill="white"/>
<path d="M79.3002 7.95611C79.4709 10.5588 79.1722 14.7614 78.4042 20.5641C77.6789 26.3668 76.9109 31.5934 76.1002 36.2441C75.3322 40.8948 74.1376 47.5934 72.5162 56.3401C68.8896 76.3508 67.1402 87.9988 67.2682 91.2841C67.4389 90.9854 67.6309 90.6654 67.8442 90.3241C68.0149 90.0254 68.2496 89.8334 68.5482 89.7481C68.8896 89.6628 69.2096 89.7054 69.5082 89.8761C69.8069 90.0468 69.9989 90.2814 70.0842 90.5801C70.1696 90.9214 70.1269 91.2414 69.9562 91.5401C69.3162 92.6494 68.6976 93.4814 68.1002 94.0361C67.5456 94.6334 66.9056 94.8041 66.1802 94.5481C65.7536 94.3774 65.4336 94.0574 65.2202 93.5881C65.0069 93.1614 64.8789 92.3508 64.8362 91.1561C64.7936 90.0041 64.8576 88.5748 65.0282 86.8681C65.1989 85.2041 65.5189 82.8574 65.9882 79.8281C66.4576 76.8414 67.0122 73.5134 67.6522 69.8441C68.2922 66.1748 69.1242 61.5454 70.1482 55.9561C71.6842 47.4654 72.8362 40.9374 73.6042 36.3721C74.4149 31.7641 75.1829 26.5374 75.9082 20.6921C76.6762 14.8041 76.9962 10.6228 76.8682 8.14811C76.6976 5.80145 76.2709 4.58545 75.5882 4.50011C75.5882 4.50011 75.5669 4.50011 75.5242 4.50011C75.2256 4.50011 74.8416 4.64944 74.3722 4.94811C73.9456 5.24678 73.3482 5.78011 72.5802 6.54811C71.8549 7.31611 71.0656 8.29744 70.2122 9.49211C69.3589 10.6441 68.3562 12.2014 67.2042 14.1641C66.0522 16.0841 64.8576 18.2814 63.6202 20.7561C57.1349 33.7268 50.8842 50.6014 44.8682 71.3801C44.7829 71.7214 44.5909 71.9561 44.2922 72.0841C44.0362 72.2548 43.7376 72.2974 43.3962 72.2121C43.0976 72.1694 42.8416 71.9988 42.6282 71.7001C42.4576 71.4441 42.3936 71.1668 42.4362 70.8681C45.4229 53.2894 47.0229 40.0841 47.2362 31.2521C47.2789 29.2041 47.2362 27.4121 47.1082 25.8761C47.0229 24.3401 46.8949 23.2094 46.7242 22.4841C46.5962 21.7588 46.4042 21.1614 46.1482 20.6921C45.9349 20.2228 45.7856 19.9668 45.7002 19.9241C45.6149 19.8388 45.5296 19.7748 45.4442 19.7321C44.6336 19.6041 43.3322 20.7348 41.5402 23.1241C38.3402 27.3481 34.4149 34.7721 29.7642 45.3961C26.2229 53.5028 22.7029 62.5268 19.2042 72.4681C15.7056 82.4521 12.6122 92.2228 9.92424 101.78C9.92424 101.78 9.92424 101.801 9.92424 101.844C9.7109 102.356 9.54024 102.74 9.41224 102.996C9.3269 103.252 9.1989 103.551 9.02824 103.892C8.85757 104.233 8.66557 104.468 8.45224 104.596C8.2389 104.724 8.00424 104.788 7.74824 104.788C7.62024 104.788 7.4709 104.767 7.30024 104.724C6.74557 104.553 6.42557 104.084 6.34024 103.316C6.29757 102.591 6.40424 101.503 6.66024 100.052C6.9589 98.0468 7.4709 95.1668 8.19624 91.4121C9.47624 84.9694 11.3536 76.1374 13.8282 64.9161C17.8389 46.6548 21.3802 31.0814 24.4522 18.1961C24.7082 17.0014 24.9216 15.8921 25.0922 14.8681C25.2629 13.8441 25.3696 12.9694 25.4122 12.2441C25.4976 11.5188 25.5189 10.8788 25.4762 10.3241C25.4336 9.72678 25.3696 9.25744 25.2842 8.91611C25.2416 8.57478 25.1562 8.27611 25.0282 8.02011C24.9429 7.76411 24.8362 7.59344 24.7082 7.50811C24.6229 7.42278 24.5376 7.33745 24.4522 7.25211C23.4709 6.61211 21.6576 7.31611 19.0122 9.36411C17.8176 10.3028 16.5802 11.4334 15.3002 12.7561C14.0629 14.0788 12.8469 15.5294 11.6522 17.1081C10.4576 18.6868 9.3269 20.3508 8.26024 22.1001C7.19357 23.8494 6.2549 25.6201 5.44424 27.4121C4.63357 29.1614 3.9509 30.9108 3.39624 32.6601C2.88424 34.4094 2.58557 36.0521 2.50024 37.5881C2.45757 39.0814 2.62824 40.4681 3.01224 41.7481C4.24957 45.4174 7.7909 47.2948 13.6362 47.3801C13.8496 47.3801 14.0416 47.4441 14.2122 47.5721C14.4256 47.6574 14.5749 47.8068 14.6602 48.0201C14.7882 48.1908 14.8522 48.4041 14.8522 48.6601C14.8522 49.0014 14.7242 49.3001 14.4682 49.5561C14.2122 49.7694 13.9349 49.8761 13.6362 49.8761H13.5722C12.2496 49.8334 10.9909 49.7054 9.79624 49.4921C8.60157 49.2788 7.36424 48.9161 6.08424 48.4041C4.8469 47.8921 3.73757 47.1454 2.75624 46.1641C1.81757 45.1401 1.11357 43.9241 0.644235 42.5161C-0.934431 37.7374 0.388236 31.4014 4.61224 23.5081C6.36157 20.3081 8.38824 17.2574 10.6922 14.3561C12.9962 11.4548 15.2789 9.12944 17.5402 7.38011C21.0816 4.64944 23.8336 3.92411 25.7962 5.20411C28.2709 6.78278 28.6122 11.3054 26.8202 18.7721C24.9856 26.5801 22.4042 37.8654 19.0762 52.6281C15.7482 67.3481 13.1456 79.3588 11.2682 88.6601C16.3456 72.3614 21.7642 57.5988 27.5242 44.3721C28.8469 41.3428 30.1269 38.5481 31.3642 35.9881C32.6016 33.4281 33.6896 31.2521 34.6282 29.4601C35.6096 27.6681 36.5482 26.0894 37.4442 24.7241C38.3829 23.3161 39.1722 22.1854 39.8122 21.3321C40.4522 20.4788 41.0922 19.7534 41.7322 19.1561C42.3722 18.5588 42.8842 18.1321 43.2682 17.8761C43.6522 17.6201 44.0576 17.4494 44.4842 17.3641C44.9109 17.2788 45.2096 17.2574 45.3802 17.3001C45.5509 17.3001 45.7642 17.3214 46.0202 17.3641C46.4896 17.4494 46.9162 17.6628 47.3002 18.0041C47.6842 18.3028 48.0469 18.8361 48.3882 19.6041C48.7722 20.3294 49.0709 21.2681 49.2842 22.4201C49.4976 23.5721 49.6256 25.1081 49.6682 27.0281C49.7536 28.9481 49.7322 31.1668 49.6042 33.6841C49.5189 36.1588 49.2842 39.1881 48.9002 42.7721C48.5589 46.3134 48.0896 50.2601 47.4922 54.6121C49.5402 48.3401 51.6309 42.4734 53.7642 37.0121C55.9402 31.5081 58.0522 26.6014 60.1002 22.2921C62.1909 17.9828 64.1749 14.2921 66.0522 11.2201C67.9722 8.10544 69.7642 5.78011 71.4282 4.24411C73.1349 2.66544 74.6282 1.94011 75.9082 2.06811C77.9136 2.28144 79.0442 4.24411 79.3002 7.95611Z" fill="white"/>
</svg>
