<svg width="467" height="132" viewBox="0 0 467 132" fill="none" xmlns="http://www.w3.org/2000/svg">
<path d="M81.024 19.712C81.1947 22.3147 80.896 26.5173 80.128 32.32C79.4027 38.1227 78.6347 43.3493 77.824 48C77.056 52.6507 75.8614 59.3493 74.24 68.096C70.6134 88.1067 68.864 99.7547 68.992 103.04C69.1627 102.741 69.3547 102.421 69.568 102.08C69.7387 101.781 69.9734 101.589 70.272 101.504C70.6134 101.419 70.9334 101.461 71.232 101.632C71.5307 101.803 71.7227 102.037 71.808 102.336C71.8934 102.677 71.8507 102.997 71.68 103.296C71.04 104.405 70.4214 105.237 69.824 105.792C69.2694 106.389 68.6294 106.56 67.904 106.304C67.4774 106.133 67.1574 105.813 66.944 105.344C66.7307 104.917 66.6027 104.107 66.56 102.912C66.5174 101.76 66.5814 100.331 66.752 98.624C66.9227 96.96 67.2427 94.6133 67.712 91.584C68.1814 88.5973 68.736 85.2693 69.376 81.6C70.016 77.9307 70.848 73.3013 71.872 67.712C73.408 59.2213 74.56 52.6933 75.328 48.128C76.1387 43.52 76.9067 38.2933 77.632 32.448C78.4 26.56 78.72 22.3787 78.592 19.904C78.4214 17.5573 77.9947 16.3413 77.312 16.256C77.312 16.256 77.2907 16.256 77.248 16.256C76.9494 16.256 76.5654 16.4053 76.096 16.704C75.6694 17.0027 75.072 17.536 74.304 18.304C73.5787 19.072 72.7894 20.0533 71.936 21.248C71.0827 22.4 70.08 23.9573 68.928 25.92C67.776 27.84 66.5814 30.0373 65.344 32.512C58.8587 45.4827 52.608 62.3573 46.592 83.136C46.5067 83.4773 46.3147 83.712 46.016 83.84C45.76 84.0107 45.4614 84.0533 45.12 83.968C44.8214 83.9253 44.5654 83.7547 44.352 83.456C44.1814 83.2 44.1174 82.9227 44.16 82.624C47.1467 65.0453 48.7467 51.84 48.96 43.008C49.0027 40.96 48.96 39.168 48.832 37.632C48.7467 36.096 48.6187 34.9653 48.448 34.24C48.32 33.5147 48.128 32.9173 47.872 32.448C47.6587 31.9787 47.5094 31.7227 47.424 31.68C47.3387 31.5947 47.2534 31.5307 47.168 31.488C46.3574 31.36 45.056 32.4907 43.264 34.88C40.064 39.104 36.1387 46.528 31.488 57.152C27.9467 65.2587 24.4267 74.2827 20.928 84.224C17.4294 94.208 14.336 103.979 11.648 113.536C11.648 113.536 11.648 113.557 11.648 113.6C11.4347 114.112 11.264 114.496 11.136 114.752C11.0507 115.008 10.9227 115.307 10.752 115.648C10.5814 115.989 10.3894 116.224 10.176 116.352C9.9627 116.48 9.72803 116.544 9.47203 116.544C9.34403 116.544 9.1947 116.523 9.02403 116.48C8.46936 116.309 8.14936 115.84 8.06403 115.072C8.02136 114.347 8.12803 113.259 8.38403 111.808C8.6827 109.803 9.1947 106.923 9.92003 103.168C11.2 96.7253 13.0774 87.8933 15.552 76.672C19.5627 58.4107 23.104 42.8373 26.176 29.952C26.432 28.7573 26.6454 27.648 26.816 26.624C26.9867 25.6 27.0934 24.7253 27.136 24C27.2214 23.2747 27.2427 22.6347 27.2 22.08C27.1574 21.4827 27.0934 21.0133 27.008 20.672C26.9654 20.3307 26.88 20.032 26.752 19.776C26.6667 19.52 26.56 19.3493 26.432 19.264C26.3467 19.1787 26.2614 19.0933 26.176 19.008C25.1947 18.368 23.3814 19.072 20.736 21.12C19.5414 22.0587 18.304 23.1893 17.024 24.512C15.7867 25.8347 14.5707 27.2853 13.376 28.864C12.1814 30.4427 11.0507 32.1067 9.98403 33.856C8.91737 35.6053 7.9787 37.376 7.16803 39.168C6.35736 40.9173 5.6747 42.6667 5.12003 44.416C4.60803 46.1653 4.30936 47.808 4.22403 49.344C4.18136 50.8373 4.35203 52.224 4.73603 53.504C5.97336 57.1733 9.5147 59.0507 15.36 59.136C15.5734 59.136 15.7654 59.2 15.936 59.328C16.1494 59.4133 16.2987 59.5627 16.384 59.776C16.512 59.9467 16.576 60.16 16.576 60.416C16.576 60.7573 16.448 61.056 16.192 61.312C15.936 61.5253 15.6587 61.632 15.36 61.632H15.296C13.9734 61.5893 12.7147 61.4613 11.52 61.248C10.3254 61.0347 9.08803 60.672 7.80803 60.16C6.5707 59.648 5.46136 58.9013 4.48003 57.92C3.54136 56.896 2.83736 55.68 2.36803 54.272C0.789365 49.4933 2.11203 43.1573 6.33603 35.264C8.08536 32.064 10.112 29.0133 12.416 26.112C14.72 23.2107 17.0027 20.8853 19.264 19.136C22.8054 16.4053 25.5574 15.68 27.52 16.96C29.9947 18.5387 30.336 23.0613 28.544 30.528C26.7094 38.336 24.128 49.6213 20.8 64.384C17.472 79.104 14.8694 91.1147 12.992 100.416C18.0694 84.1173 23.488 69.3547 29.248 56.128C30.5707 53.0987 31.8507 50.304 33.088 47.744C34.3254 45.184 35.4134 43.008 36.352 41.216C37.3334 39.424 38.272 37.8453 39.168 36.48C40.1067 35.072 40.896 33.9413 41.536 33.088C42.176 32.2347 42.816 31.5093 43.456 30.912C44.096 30.3147 44.608 29.888 44.992 29.632C45.376 29.376 45.7814 29.2053 46.208 29.12C46.6347 29.0347 46.9334 29.0133 47.104 29.056C47.2747 29.056 47.488 29.0773 47.744 29.12C48.2134 29.2053 48.64 29.4187 49.024 29.76C49.408 30.0587 49.7707 30.592 50.112 31.36C50.496 32.0853 50.7947 33.024 51.008 34.176C51.2214 35.328 51.3494 36.864 51.392 38.784C51.4774 40.704 51.456 42.9227 51.328 45.44C51.2427 47.9147 51.008 50.944 50.624 54.528C50.2827 58.0693 49.8134 62.016 49.216 66.368C51.264 60.096 53.3547 54.2293 55.488 48.768C57.664 43.264 59.776 38.3573 61.824 34.048C63.9147 29.7387 65.8987 26.048 67.776 22.976C69.696 19.8613 71.488 17.536 73.152 16C74.8587 14.4213 76.352 13.696 77.632 13.824C79.6374 14.0373 80.768 16 81.024 19.712ZM99.7505 60.224C100.092 60.1387 100.412 60.1813 100.711 60.352C101.009 60.5227 101.18 60.7787 101.223 61.12C101.308 61.4613 101.265 61.7813 101.095 62.08C99.8999 63.9573 98.4492 65.92 96.7425 67.968C95.0785 69.9733 93.1799 71.7867 91.0465 73.408C88.9559 75.0293 87.1852 75.84 85.7345 75.84C85.2225 75.84 84.7745 75.7547 84.3905 75.584C81.5319 74.3467 81.2332 69.3333 83.4945 60.544C83.5799 60.2027 83.7719 59.9467 84.0705 59.776C84.3692 59.6053 84.6679 59.5627 84.9665 59.648C85.3079 59.7333 85.5639 59.9253 85.7345 60.224C85.9052 60.5227 85.9479 60.8213 85.8625 61.12C85.3505 63.168 84.9665 64.9813 84.7105 66.56C84.4972 68.096 84.3905 69.2693 84.3905 70.08C84.4332 70.8907 84.5185 71.5733 84.6465 72.128C84.8172 72.64 84.9452 72.96 85.0305 73.088C85.1585 73.1733 85.2652 73.2373 85.3505 73.28C86.4599 73.7493 88.4652 72.64 91.3665 69.952C94.3105 67.264 96.8492 64.192 98.9825 60.736C99.1959 60.48 99.4519 60.3093 99.7505 60.224ZM85.6065 55.232C84.3692 55.1467 83.9852 54.6347 84.4545 53.696C84.8812 52.928 85.4359 52.416 86.1185 52.16C87.1852 51.8187 87.8252 52.096 88.0385 52.992C88.2519 53.8453 87.9319 54.4853 87.0785 54.912C86.6519 55.1253 86.1612 55.232 85.6065 55.232ZM118.37 60.224C118.711 60.1387 119.01 60.2027 119.266 60.416C119.565 60.5867 119.757 60.8427 119.842 61.184C119.927 61.5253 119.863 61.824 119.65 62.08C118.242 64.256 117.005 66.0907 115.938 67.584C114.914 69.0773 113.741 70.6773 112.418 72.384C111.095 74.048 109.879 75.3707 108.77 76.352C107.703 77.376 106.573 78.208 105.378 78.848C104.183 79.5307 103.053 79.872 101.986 79.872C101.602 79.872 101.218 79.8293 100.834 79.744C99.298 79.4027 98.1247 78.5067 97.314 77.056C96.4607 75.136 96.098 73.0453 96.226 70.784C96.3114 68.48 96.7594 66.2187 97.57 64C98.4234 61.6533 99.49 59.84 100.77 58.56C102.093 57.28 103.33 56.832 104.482 57.216C104.738 57.3013 104.973 57.4293 105.186 57.6C105.399 57.728 105.655 58.0267 105.954 58.496C106.253 58.9227 106.402 59.4987 106.402 60.224C106.402 60.9493 106.274 61.888 106.018 63.04C105.933 63.3813 105.741 63.6373 105.442 63.808C105.186 63.9787 104.887 64.0213 104.546 63.936C104.205 63.8507 103.949 63.6587 103.778 63.36C103.607 63.0613 103.565 62.7627 103.65 62.464C104.077 60.8427 104.098 59.8613 103.714 59.52C103.543 59.52 103.266 59.648 102.882 59.904C102.541 60.16 102.071 60.736 101.474 61.632C100.877 62.4853 100.343 63.5733 99.874 64.896C99.106 66.9013 98.6794 68.9493 98.594 71.04C98.5514 73.088 98.85 74.688 99.49 75.84C99.9167 76.6507 100.535 77.1413 101.346 77.312C102.071 77.4827 102.882 77.376 103.778 76.992C104.717 76.608 105.698 75.9253 106.722 74.944C107.789 73.92 108.749 72.9387 109.602 72C110.455 71.0187 111.437 69.7387 112.546 68.16C113.698 66.5387 114.573 65.3013 115.17 64.448C115.767 63.552 116.578 62.3147 117.602 60.736C117.773 60.48 118.029 60.3093 118.37 60.224ZM145.335 60.16C145.676 60.0747 145.975 60.1173 146.231 60.288C146.529 60.4587 146.721 60.7147 146.807 61.056C146.892 61.3973 146.849 61.7173 146.679 62.016C145.271 64.2773 143.927 66.304 142.647 68.096C141.367 69.8453 140.257 71.2747 139.319 72.384C138.423 73.4507 137.548 74.3467 136.695 75.072C135.841 75.84 135.159 76.3733 134.647 76.672C134.135 77.0133 133.623 77.2267 133.111 77.312C132.599 77.44 132.236 77.4827 132.023 77.44C131.852 77.44 131.639 77.4187 131.383 77.376C129.377 76.864 128.247 74.5813 127.991 70.528C127.948 69.632 127.841 68.8853 127.671 68.288C127.5 67.648 127.351 67.2427 127.223 67.072C127.095 66.8587 126.988 66.752 126.903 66.752C126.86 66.752 126.839 66.752 126.839 66.752C126.497 66.752 126.028 67.0293 125.431 67.584C124.833 68.096 124.108 68.9493 123.255 70.144C122.401 71.3387 121.505 72.7893 120.567 74.496C119.628 76.2027 118.583 78.3573 117.431 80.96C116.321 83.5627 115.233 86.3787 114.167 89.408C113.996 89.9627 113.612 90.24 113.015 90.24C112.929 90.24 112.844 90.24 112.759 90.24C112.545 90.1973 112.375 90.112 112.247 89.984C112.076 89.856 111.948 89.6853 111.863 89.472C111.777 89.3013 111.756 89.1307 111.799 88.96C111.884 87.2107 113.015 81.6 115.191 72.128C117.324 62.6133 119.073 54.976 120.439 49.216C121.847 43.4133 122.935 38.976 123.703 35.904C125.153 30.016 126.817 25.0027 128.695 20.864C130.615 16.6827 132.257 14.464 133.623 14.208C134.348 14.08 134.903 14.2933 135.287 14.848C136.225 16.128 135.671 19.4347 133.623 24.768C131.617 30.1013 128.481 36.6293 124.215 44.352C120.929 57.8773 118.391 68.736 116.599 76.928C118.476 72.96 120.332 69.824 122.167 67.52C124.001 65.1733 125.687 64.1067 127.223 64.32C129.143 64.576 130.209 66.5813 130.423 70.336C130.636 73.1947 131.148 74.7307 131.959 74.944C132.087 74.9867 132.257 74.9867 132.471 74.944C132.727 74.9013 133.217 74.6453 133.943 74.176C134.668 73.7067 135.457 73.024 136.311 72.128C137.164 71.1893 138.316 69.7387 139.767 67.776C141.26 65.8133 142.86 63.4453 144.567 60.672C144.737 60.416 144.993 60.2453 145.335 60.16ZM133.175 17.792C130.828 21.1627 128.631 26.7307 126.583 34.496C130.337 26.944 132.535 21.376 133.175 17.792ZM169.377 60.672C169.718 60.544 170.038 60.5653 170.337 60.736C170.636 60.864 170.828 61.0987 170.913 61.44C171.041 61.7387 171.041 62.0373 170.913 62.336C166.348 71.7653 162.273 76.48 158.689 76.48C158.476 76.48 158.241 76.4587 157.985 76.416C155.126 75.8613 153.356 72.0213 152.673 64.896C150.582 67.712 148.726 70.016 147.105 71.808C145.654 73.344 144.417 73.8773 143.393 73.408C142.369 73.024 141.878 71.9147 141.921 70.08C141.921 68.544 142.262 66.7093 142.945 64.576C143.628 62.4427 144.63 60.3733 145.953 58.368C147.276 56.3627 148.705 55.104 150.241 54.592C152.502 53.7813 154.593 54.528 156.513 56.832C156.726 57.088 156.812 57.3867 156.769 57.728C156.769 58.0693 156.641 58.3467 156.385 58.56C156.129 58.7733 155.83 58.88 155.489 58.88C155.148 58.8373 154.87 58.688 154.657 58.432C153.164 56.64 151.649 56.2987 150.113 57.408C148.364 58.6453 146.892 60.8853 145.697 64.128C144.545 67.328 144.097 69.6107 144.353 70.976C144.609 70.7627 144.908 70.4853 145.249 70.144C146.956 68.3093 149.046 65.6853 151.521 62.272C152.076 61.504 152.46 60.9707 152.673 60.672C153.014 60.2453 153.462 60.1173 154.017 60.288C154.572 60.416 154.87 60.7787 154.913 61.376C154.998 63.4667 155.169 65.3227 155.425 66.944C155.681 68.5653 155.937 69.8027 156.193 70.656C156.449 71.4667 156.748 72.1493 157.089 72.704C157.43 73.2587 157.686 73.6213 157.857 73.792C158.07 73.92 158.284 73.984 158.497 73.984C159.094 74.112 159.841 73.8347 160.737 73.152C161.676 72.4267 162.849 71.0613 164.257 69.056C165.708 67.008 167.18 64.4267 168.673 61.312C168.844 60.9707 169.078 60.7573 169.377 60.672ZM241.359 45.376C241.359 45.5893 241.316 45.8027 241.231 46.016C241.145 46.1867 241.017 46.336 240.847 46.464C240.676 46.592 240.484 46.6773 240.271 46.72C235.279 47.2747 230.628 48.2133 226.319 49.536C221.54 70.5707 217.807 87.5733 215.119 100.544C214.223 104.597 212.943 107.84 211.279 110.272C209.615 112.747 207.652 114.261 205.391 114.816C204.793 114.987 204.175 115.072 203.535 115.072C200.548 115.072 197.796 113.557 195.279 110.528C193.444 108.309 192.057 105.323 191.119 101.568C190.18 97.856 189.881 93.5893 190.223 88.768C190.564 83.9893 191.631 79.36 193.423 74.88C196.623 67.0293 201.721 60.544 208.719 55.424C213.199 52.1813 218.383 49.5787 224.271 47.616C226.063 39.68 227.599 33.088 228.879 27.84C229.561 25.0667 229.967 22.72 230.095 20.8C230.223 18.88 230.18 17.6213 229.967 17.024C229.796 16.384 229.583 16.0213 229.327 15.936C228.815 15.7653 228.089 16.064 227.151 16.832C226.212 17.5573 225.209 18.688 224.143 20.224C223.076 21.7173 222.223 23.3387 221.583 25.088C221.284 25.8987 221.049 26.7093 220.879 27.52C220.708 28.288 220.623 29.1413 220.623 30.08C220.623 31.0187 220.857 31.8933 221.327 32.704C221.839 33.472 222.564 34.0693 223.503 34.496C223.801 34.624 224.015 34.8587 224.143 35.2C224.271 35.4987 224.271 35.7973 224.143 36.096C224.015 36.3947 223.78 36.608 223.439 36.736C223.14 36.864 222.82 36.864 222.479 36.736C220.388 35.7973 219.044 34.2187 218.447 32C217.892 29.7813 218.169 27.1787 219.279 24.192C220.345 21.2907 221.967 18.6667 224.143 16.32C226.319 13.9307 228.281 13.0133 230.031 13.568C233.017 14.464 233.423 19.4133 231.247 28.416C230.052 33.3653 228.623 39.488 226.959 46.784C231.012 45.632 235.364 44.8 240.015 44.288C240.313 44.2453 240.591 44.3307 240.847 44.544C241.145 44.7573 241.316 45.0347 241.359 45.376ZM212.687 100.032C215.289 87.616 218.937 71.0827 223.631 50.432C219.663 51.84 216.057 53.5467 212.815 55.552C209.615 57.5573 206.927 59.7333 204.751 62.08C202.575 64.384 200.761 66.6453 199.311 68.864C197.903 71.0827 196.708 73.408 195.727 75.84C194.319 79.296 193.359 83.072 192.847 87.168C192.377 91.3067 192.484 95.3813 193.167 99.392C193.892 103.403 195.215 106.581 197.135 108.928C198.329 110.379 199.588 111.403 200.911 112C202.276 112.597 203.577 112.747 204.815 112.448C206.607 112.021 208.164 110.741 209.487 108.608C210.852 106.475 211.919 103.616 212.687 100.032ZM259.168 60.736C259.509 60.6933 259.808 60.7787 260.064 60.992C260.363 61.2053 260.533 61.4827 260.576 61.824C260.619 62.1653 260.533 62.464 260.32 62.72C258.571 64.9813 256.48 66.752 254.048 68.032C251.616 69.312 249.333 69.7173 247.2 69.248C246.603 70.6987 245.771 71.8507 244.704 72.704C243.637 73.5147 242.528 73.92 241.376 73.92H241.312C240.16 73.8773 239.136 73.4933 238.24 72.768C237.387 72 236.789 70.9547 236.448 69.632C235.893 67.5413 236 65.5573 236.768 63.68C237.493 61.76 238.56 60.352 239.968 59.456C240.267 59.2427 240.608 59.2 240.992 59.328C241.376 58.3893 241.909 57.664 242.592 57.152C243.317 56.64 244.064 56.448 244.832 56.576C245.259 56.6613 245.643 56.8533 245.984 57.152C246.368 57.408 246.731 57.8347 247.072 58.432C247.456 59.0293 247.733 59.9467 247.904 61.184C248.075 62.4213 248.117 63.8933 248.032 65.6C247.989 66.0267 247.925 66.4533 247.84 66.88C249.461 67.2213 251.253 66.816 253.216 65.664C255.221 64.512 256.928 63.0187 258.336 61.184C258.549 60.928 258.827 60.7787 259.168 60.736ZM241.376 71.424C241.973 71.424 242.592 71.1467 243.232 70.592C243.915 70.0373 244.469 69.2907 244.896 68.352C242.123 66.816 240.672 64.7253 240.544 62.08C239.691 62.8907 239.093 63.9787 238.752 65.344C238.453 66.7093 238.475 67.904 238.816 68.928C239.285 70.592 240.139 71.424 241.376 71.424ZM245.536 65.472C245.621 64.448 245.621 63.5733 245.536 62.848C245.493 62.08 245.429 61.4613 245.344 60.992C245.259 60.5227 245.152 60.1387 245.024 59.84C244.896 59.5413 244.768 59.328 244.64 59.2C244.555 59.072 244.491 59.008 244.448 59.008H244.384C244.213 59.008 244 59.1573 243.744 59.456C243.488 59.712 243.296 60.0747 243.168 60.544C242.912 61.44 242.955 62.3573 243.296 63.296C243.637 64.2347 244.384 65.088 245.536 65.856C245.536 65.728 245.536 65.6 245.536 65.472ZM287.924 60.352C288.265 60.3947 288.521 60.5653 288.692 60.864C288.905 61.12 288.969 61.4187 288.884 61.76C288.799 62.1013 288.628 62.3573 288.372 62.528C280.82 67.4347 274.633 72.32 269.812 77.184C267.295 92.2453 264.543 104.469 261.556 113.856C258.015 124.907 254.58 130.901 251.252 131.84C250.953 131.925 250.633 131.968 250.292 131.968C249.311 131.968 248.457 131.541 247.732 130.688C246.537 129.152 245.897 126.613 245.812 123.072C245.684 119.531 246.239 115.349 247.476 110.528C248.671 105.707 250.42 101.056 252.724 96.576C256.777 88.8533 261.727 81.984 267.572 75.968C268.212 71.9573 268.852 67.7547 269.492 63.36C268.169 65.3653 266.932 67.0507 265.78 68.416C263.903 70.72 262.111 71.36 260.404 70.336C258.996 69.4827 258.249 67.712 258.164 65.024C258.079 62.2933 258.697 59.328 260.02 56.128C260.148 55.8293 260.361 55.616 260.66 55.488C261.001 55.36 261.321 55.36 261.62 55.488C261.919 55.616 262.132 55.8293 262.26 56.128C262.431 56.4267 262.452 56.7467 262.324 57.088C261.172 60.2027 260.596 62.7413 260.596 64.704C260.639 66.6667 261.001 67.84 261.684 68.224C262.153 68.5227 262.879 68.0747 263.86 66.88C265.993 64.32 268.191 61.0773 270.452 57.152C270.793 56.5547 271.284 56.384 271.924 56.64C272.564 56.8533 272.841 57.28 272.756 57.92C272.031 63.2533 271.284 68.3093 270.516 73.088C274.911 68.992 280.415 64.7893 287.028 60.48C287.284 60.3093 287.583 60.2667 287.924 60.352ZM259.188 113.152C261.919 104.619 264.457 93.7173 266.804 80.448C262.196 85.568 258.228 91.328 254.9 97.728C253.065 101.227 251.615 104.789 250.548 108.416C249.439 112.085 248.756 115.285 248.5 118.016C248.244 120.747 248.223 123.093 248.436 125.056C248.649 127.019 249.055 128.363 249.652 129.088C249.951 129.429 250.249 129.557 250.548 129.472C250.761 129.429 250.996 129.323 251.252 129.152C251.508 128.981 251.935 128.533 252.532 127.808C253.129 127.125 253.727 126.229 254.324 125.12C254.921 124.053 255.668 122.475 256.564 120.384C257.46 118.293 258.335 115.883 259.188 113.152ZM359.796 45.376C359.796 45.5893 359.753 45.8027 359.668 46.016C359.583 46.1867 359.455 46.336 359.284 46.464C359.113 46.592 358.921 46.6773 358.708 46.72C353.716 47.2747 349.065 48.2133 344.756 49.536C339.977 70.5707 336.244 87.5733 333.556 100.544C332.66 104.597 331.38 107.84 329.716 110.272C328.052 112.747 326.089 114.261 323.828 114.816C323.231 114.987 322.612 115.072 321.972 115.072C318.985 115.072 316.233 113.557 313.716 110.528C311.881 108.309 310.495 105.323 309.556 101.568C308.617 97.856 308.319 93.5893 308.66 88.768C309.001 83.9893 310.068 79.36 311.86 74.88C315.06 67.0293 320.159 60.544 327.156 55.424C331.636 52.1813 336.82 49.5787 342.708 47.616C344.5 39.68 346.036 33.088 347.316 27.84C347.999 25.0667 348.404 22.72 348.532 20.8C348.66 18.88 348.617 17.6213 348.404 17.024C348.233 16.384 348.02 16.0213 347.764 15.936C347.252 15.7653 346.527 16.064 345.588 16.832C344.649 17.5573 343.647 18.688 342.58 20.224C341.513 21.7173 340.66 23.3387 340.02 25.088C339.721 25.8987 339.487 26.7093 339.316 27.52C339.145 28.288 339.06 29.1413 339.06 30.08C339.06 31.0187 339.295 31.8933 339.764 32.704C340.276 33.472 341.001 34.0693 341.94 34.496C342.239 34.624 342.452 34.8587 342.58 35.2C342.708 35.4987 342.708 35.7973 342.58 36.096C342.452 36.3947 342.217 36.608 341.876 36.736C341.577 36.864 341.257 36.864 340.916 36.736C338.825 35.7973 337.481 34.2187 336.884 32C336.329 29.7813 336.607 27.1787 337.716 24.192C338.783 21.2907 340.404 18.6667 342.58 16.32C344.756 13.9307 346.719 13.0133 348.468 13.568C351.455 14.464 351.86 19.4133 349.684 28.416C348.489 33.3653 347.06 39.488 345.396 46.784C349.449 45.632 353.801 44.8 358.452 44.288C358.751 44.2453 359.028 44.3307 359.284 44.544C359.583 44.7573 359.753 45.0347 359.796 45.376ZM331.124 100.032C333.727 87.616 337.375 71.0827 342.068 50.432C338.1 51.84 334.495 53.5467 331.252 55.552C328.052 57.5573 325.364 59.7333 323.188 62.08C321.012 64.384 319.199 66.6453 317.748 68.864C316.34 71.0827 315.145 73.408 314.164 75.84C312.756 79.296 311.796 83.072 311.284 87.168C310.815 91.3067 310.921 95.3813 311.604 99.392C312.329 103.403 313.652 106.581 315.572 108.928C316.767 110.379 318.025 111.403 319.348 112C320.713 112.597 322.015 112.747 323.252 112.448C325.044 112.021 326.601 110.741 327.924 108.608C329.289 106.475 330.356 103.616 331.124 100.032ZM358.982 72.064C359.963 71.7653 360.518 71.9787 360.646 72.704C360.731 73.472 360.368 74.048 359.558 74.432C359.131 74.6453 358.64 74.752 358.086 74.752C357.19 74.6667 356.976 74.1973 357.446 73.344C357.83 72.704 358.342 72.2773 358.982 72.064ZM465.697 0.255997C466.038 0.383998 466.252 0.618665 466.337 0.959999C466.422 1.25866 466.38 1.55733 466.209 1.856C466.081 2.15466 465.868 2.36799 465.569 2.49599C462.54 3.43466 456.097 5.39733 446.241 8.384C434.934 11.7973 426.358 14.4213 420.513 16.256C419.105 21.8027 416.289 34.0693 412.065 53.056C407.713 72.8107 404.598 86.528 402.721 94.208C401.228 100.437 400.012 105.131 399.073 108.288C398.348 110.763 397.772 112.405 397.345 113.216C396.918 114.069 396.406 114.496 395.809 114.496C395.724 114.496 395.638 114.496 395.553 114.496C394.785 114.368 394.337 113.728 394.209 112.576C394.081 111.424 394.188 108.779 394.529 104.64C394.572 104.299 394.721 104.021 394.977 103.808C395.233 103.595 395.532 103.509 395.873 103.552C396.086 103.552 396.278 103.616 396.449 103.744C396.662 103.872 396.812 104.043 396.897 104.256C396.982 104.469 397.004 104.683 396.961 104.896C396.876 105.835 396.812 106.688 396.769 107.456C398.774 100.459 403.084 82.1333 409.697 52.48C413.665 34.56 416.353 22.784 417.761 17.152C413.878 18.3467 410.401 19.456 407.329 20.48C395.809 24.32 388.812 27.0507 386.337 28.672C386.764 28.9707 386.934 29.376 386.849 29.888C386.721 30.5707 386.316 30.912 385.633 30.912C385.548 30.912 385.462 30.8907 385.377 30.848C384.012 30.592 383.286 29.9733 383.201 28.992C383.201 28.3093 383.649 27.6267 384.545 26.944C385.441 26.2187 387.233 25.3013 389.921 24.192C393.42 22.6987 398.497 20.8427 405.153 18.624C413.302 15.8933 426.764 11.6907 445.537 6.016C455.35 3.072 461.772 1.10933 464.801 0.127998C465.1 0.0426661 465.398 0.0853322 465.697 0.255997ZM421.857 72.064C422.838 71.7653 423.393 71.9787 423.521 72.704C423.606 73.472 423.243 74.048 422.433 74.432C422.006 74.6453 421.515 74.752 420.961 74.752C420.065 74.6667 419.851 74.1973 420.321 73.344C420.705 72.704 421.217 72.2773 421.857 72.064Z" fill="white"/>
</svg>
