<svg width="395" height="248" viewBox="0 0 395 248" fill="none" xmlns="http://www.w3.org/2000/svg">
<path d="M103.688 0C143.373 1.013 148.672 29.2593 137.575 60.704C130.417 80.9863 119.381 102.607 104.562 118.227C97.8713 125.233 90.138 131.162 81.6363 135.806C73.2003 140.343 64.1345 142.679 54.8893 139.602C47.8293 137.252 44.7733 134.341 41.392 127.965C39.0535 137.038 36.8965 146.856 34.7463 156.032C30.924 172.143 27.2945 188.299 23.8583 204.497C22.6338 210.41 21.4873 216.328 20.4718 222.278C20.2748 223.433 19.4378 226.53 19.428 227.27L19.569 227.248C19.7965 227.003 20.0253 226.758 20.2698 226.53C21.0058 225.838 22.0035 225.5 23.0078 225.597C28.6443 226.1 22.56 235.402 21.1863 237.385C16.2448 244.515 12.5205 240.342 12.9395 233.512C13.4 226.007 14.9108 218.495 16.2973 211.285C19.2698 196.303 22.4803 181.368 25.9278 166.486C26.7398 164.016 28.012 157.773 28.6568 155.062L34.8983 128.778L55.5873 43.8317C56.4515 40.2692 61.6233 17.4545 62.804 15.4715C51.74 19.7553 35.8368 29.519 27.0483 37.5725C14.9895 48.5268 3.77926 62.0272 6.35976 79.4847C6.73451 82.0202 12.0258 92.8037 5.84226 92.176C3.04926 91.482 1.02601 83.8628 0.632512 81.671C-4.48499 53.1713 22.4765 30.4385 44.4878 17.7848C50.7165 14.204 57.5323 11.4505 63.8678 8.5695C64.2393 6.13025 65.784 0.298502 69.0103 0.714252C71.7985 2.1995 70.588 4.58575 71.1703 5.95925C80.6965 2.97575 90.1648 0.574501 100.161 0.231251C101.317 0.191751 102.527 0.07625 103.688 0ZM69.4065 12.846C68.3778 15.7398 66.3368 25.6212 65.4813 29.224L57.1858 63.7225L48.009 100.954L45.1663 112.407C44.113 116.633 43.047 117.363 44.921 121.438C47.579 127.217 49.6415 131.744 56.2448 133.799C63.914 136.509 69.4705 134.276 76.78 131.633C105.362 117.418 121.345 87.6133 131.596 58.6838C142.13 28.956 137.005 4.26325 100.291 6.238C93.466 6.85 88.6355 7.3475 81.867 9.07275C78.5873 9.90875 72.2735 12.305 69.4065 12.846Z" fill="#FEFEFE"/>
<path d="M275.467 10.15C283.12 10.2645 280.432 21.6858 279.195 26.1548C275.29 40.2505 268.272 53.5318 261.085 66.1993C259.4 69.1693 257.242 71.9723 256.047 75.1965C254.875 78.4203 254.16 81.9393 253.382 85.2825C252.267 90.1958 251.105 95.098 249.895 99.9885C246.867 112.039 244.342 124.139 241.645 136.261C236.822 157.486 232.497 178.82 228.67 200.246C228.007 204.126 227.287 208.003 226.685 211.893C226.587 213.218 229.027 214.405 228.79 215.823C228.325 218.6 225.967 224.565 222.602 224.565C217.517 222.695 221.71 204.068 222.447 199.893C223.952 191.31 225.575 182.749 227.317 174.212C228.93 165.963 230.63 157.731 232.417 149.518C233.285 145.489 234.112 140.874 235.272 136.987C228.26 146.44 220.962 156.781 209.397 160.675C208.957 160.605 208.18 160.5 207.782 160.367C200.042 157.771 201.686 141.991 203.097 136.495C200.476 140.325 194.358 148.037 189.922 149.536C188.282 150.104 186.479 149.96 184.95 149.141C182.195 147.698 181.137 145.131 180.225 142.401C178.253 145.407 175.143 149.362 172.562 151.814C169.617 154.612 165.094 157.708 160.861 157.493C158.246 157.361 155.858 155.975 154.255 153.955C150.676 149.444 149.209 143.254 148.21 137.695C147.858 135.735 147.169 133.545 147.399 131.577C147.444 131.193 147.479 131.417 147.192 130.989C143.683 131.753 130.884 158.535 123.038 148.231C118.047 137.223 131.72 100.712 148.633 105.576C151.989 106.663 161.292 112.54 154.744 115.735C153.671 116.258 147.839 111.739 146.192 110.941C133.975 112.291 128.155 134.561 127.439 144.753C129.135 143.301 130.481 141.516 131.951 139.848C137.175 133.87 141.642 127.463 146.466 121.148C148.593 118.365 151.248 117.604 152.54 121.602C153.324 124.027 153.093 127.774 153.39 130.405C154.004 135.843 154.775 141.202 156.814 146.331C157.548 148.223 158.234 150.17 160.163 151.265C163.196 152.985 165.23 150.153 167.264 148.348C172.743 143.227 176.826 136.75 180.324 130.172C181.528 127.892 182.231 125.105 183.509 122.892C185.5 119.447 186.11 117.222 189.985 119.934C190.349 121.191 190.535 122.442 190.761 123.731C189.024 127.174 186.964 130.768 186.304 134.588C185.87 137.097 185.478 142.731 188.209 143.951C192.463 141.885 199.688 130.744 202.872 126.872C203.435 126.202 205.09 124.569 205.945 124.654C213.917 125.449 207.207 140.72 208.01 145.664C208.417 148.16 207.502 152.633 209.165 154.388C211.095 154.993 217.78 148.906 219.17 147.322C226.215 139.295 233.425 130.56 238.387 121.072C239.512 118.917 240.435 113.609 241.005 111.031C241.857 107.148 242.75 103.274 243.682 99.4088C246.51 87.2735 249.49 75.1738 252.622 63.113C254.697 55.0938 256.702 46.5483 259.507 38.778C262.725 29.8633 266.717 14.7938 275.467 10.15ZM262.317 52.47C265.087 45.7268 268.15 39.5863 270.77 32.8115C272.055 29.4875 273.1 23.0985 274.517 20.3723L274.345 19.9078L273.917 19.726C269.482 27.8895 263.827 43.0275 261.935 52.1553L262.13 52.5185L262.317 52.47Z" fill="#FEFEFE"/>
<path d="M377.857 2.73853C378.177 2.76028 378.497 2.78927 378.817 2.82602C393.927 4.60102 383.89 36.2698 381.732 45.3825L374.54 76.2835C366.65 110.515 359 144.801 351.59 179.14C347.76 197.159 342.805 218.443 340.435 236.573C341.247 237.798 341.785 238.775 341.672 240.375C341.5 242.888 339.092 247.74 336.025 247.32C334.195 246.95 333.047 243.728 333.212 242.108C333.825 236.058 335.055 229.835 336.172 223.863C338.515 211.443 341.035 199.056 343.73 186.708C351.967 148.406 360.437 110.154 369.137 71.9538C370.315 67.9845 370.937 63.509 372.04 59.483C372.632 57.315 373.195 54.802 373.667 52.5953C375.877 42.3105 378.84 32.1488 380.377 21.7378C380.85 18.5328 381.377 13.7605 380.325 10.6053C380.245 10.224 379.25 8.74327 378.805 8.76702C362.897 9.60927 335.87 54.173 331.48 62.3998C328.187 68.558 325.372 74.9588 323.055 81.5465C319.305 92.0348 315.287 106.675 320.382 117.253C323.207 123.117 329.232 126.366 335.5 127.302C338.182 127.703 341.355 127.752 343.872 128.72C344.617 129.006 345.245 129.401 345.517 130.195C345.727 130.809 345.6 131.678 345.3 132.238C344.847 133.085 343.84 133.489 342.945 133.663C337.252 134.769 326.102 131.382 321.437 127.917C315.957 123.846 313.262 117.047 312.382 110.502C308.915 84.6915 331.03 48.1635 346.312 28.3293C353.192 19.3978 366.222 4.25103 377.857 2.73853Z" fill="#FEFEFE"/>
<path d="M391.677 146.636C392.902 146.598 394.195 147.008 394.872 148.078C395.532 151.037 391.997 152.742 389.67 153.351C388.635 154.061 387.825 153.726 387.1 152.881C386.325 149.969 389.317 147.629 391.677 146.636Z" fill="#FEFEFE"/>
</svg>
