<svg width="225" height="102" viewBox="0 0 225 102" fill="none" xmlns="http://www.w3.org/2000/svg">
<path d="M45.632 13.76C47.6373 15.68 49.3013 18.368 50.624 21.824C51.9467 25.2374 52.8427 29.2054 53.312 33.728C53.7813 38.208 53.632 43.328 52.864 49.088C52.1387 54.848 50.752 60.6934 48.704 66.624C47.04 71.488 45.184 75.8827 43.136 79.808C41.088 83.776 39.0187 87.104 36.928 89.792C34.8373 92.48 32.6613 94.7414 30.4 96.576C28.1387 98.4107 25.9627 99.7547 23.872 100.608C21.7813 101.461 19.7547 101.888 17.792 101.888C16.4693 101.888 15.232 101.696 14.08 101.312C11.2213 100.416 8.81067 98.5814 6.848 95.808C4.88533 93.0347 3.52 89.4934 2.752 85.184C0.917335 75.584 2.02667 63.4667 6.08 48.832C6.67733 46.656 7.36 44.5227 8.128 42.432C8.896 40.3414 9.728 38.2507 10.624 36.16C11.5627 34.0267 12.5653 32.0427 13.632 30.208C14.7413 28.3734 15.8933 26.688 17.088 25.152C18.3253 23.616 19.6267 22.2934 20.992 21.184C22.4 20.0747 23.808 19.2854 25.216 18.816C25.984 18.56 26.7307 18.4107 27.456 18.368C29.8453 14.8694 32.4267 12.5654 35.2 11.456C38.912 9.96269 42.3893 10.7307 45.632 13.76ZM46.4 65.856C48.32 60.1814 49.6427 54.592 50.368 49.088C51.136 43.584 51.3067 38.6987 50.88 34.432C50.4533 30.1227 49.6427 26.3467 48.448 23.104C47.2533 19.8187 45.7387 17.3014 43.904 15.552C41.472 13.248 38.8693 12.6507 36.096 13.76C34.1333 14.528 32.2347 16.128 30.4 18.56C31.8933 18.9014 33.344 19.6054 34.752 20.672C35.008 20.8854 35.1573 21.1627 35.2 21.504C35.2427 21.8454 35.1573 22.144 34.944 22.4C34.7307 22.656 34.4533 22.8054 34.112 22.848C33.8133 22.8907 33.5147 22.8267 33.216 22.656C31.7653 21.504 30.3147 20.8854 28.864 20.8C27.2853 23.2747 25.8133 26.3467 24.448 30.016C23.0827 33.6427 21.8027 37.9734 20.608 43.008C19.456 48 18.4533 53.8667 17.6 60.608C16.7893 67.3494 16.2133 74.688 15.872 82.624C15.872 82.9654 15.744 83.2427 15.488 83.456C15.232 83.712 14.9333 83.8187 14.592 83.776C14.2507 83.776 13.952 83.648 13.696 83.392C13.4827 83.1787 13.3973 82.9014 13.44 82.56C14.0373 68.6507 15.3813 56.4694 17.472 46.016C19.6053 35.52 22.336 27.264 25.664 21.248C22.464 22.4854 19.3067 25.664 16.192 30.784C13.0773 35.8614 10.496 42.0907 8.448 49.472C6.82667 55.36 5.67467 60.864 4.992 65.984C4.352 71.0614 4.16 75.456 4.416 79.168C4.672 82.88 5.26933 86.144 6.208 88.96C7.14667 91.8187 8.34134 94.0587 9.792 95.68C11.2427 97.3014 12.9067 98.3894 14.784 98.944C17.088 99.6694 19.6053 99.52 22.336 98.496C25.0667 97.472 27.84 95.6587 30.656 93.056C33.472 90.4534 36.2667 86.8054 39.04 82.112C41.8133 77.4187 44.2667 72 46.4 65.856ZM32.576 3.07202C31.68 3.02935 31.488 2.58135 32 1.72802C32.3413 1.08802 32.8533 0.661354 33.536 0.448021C34.4747 0.149356 35.008 0.362689 35.136 1.08802C35.264 1.81335 34.9013 2.38935 34.048 2.81602C33.6213 3.02936 33.1307 3.11469 32.576 3.07202ZM38.656 3.07202C37.8027 3.02935 37.6107 2.58135 38.08 1.72802C38.464 1.08802 38.9547 0.661354 39.552 0.448021C40.5333 0.149356 41.088 0.362689 41.216 1.08802C41.344 1.81335 40.9813 2.38935 40.128 2.81602C39.7013 3.02936 39.2107 3.11469 38.656 3.07202ZM92.7965 55.808C93.1378 55.7654 93.4365 55.8507 93.6925 56.064C93.9485 56.2774 94.0765 56.5547 94.0765 56.896C94.1192 57.2374 94.0338 57.536 93.8205 57.792C88.4018 64.1494 84.1138 66.7307 80.9565 65.536C78.6952 64.6827 77.4792 61.9734 77.3085 57.408C76.7112 58.5174 75.7725 60.3734 74.4925 62.976C73.7672 64.5547 73.2765 65.5574 73.0205 65.984C71.9112 68.1174 70.7165 69.0134 69.4365 68.672C67.6872 68.2454 66.8338 65.792 66.8765 61.312C66.8765 60.4587 66.8978 59.456 66.9405 58.304C64.1245 62.3147 61.2445 67.136 58.3005 72.768C57.7885 73.7494 57.2338 74.24 56.6365 74.24C56.4232 74.24 56.2312 74.176 56.0605 74.048C55.8472 73.9627 55.6978 73.8774 55.6125 73.792C55.4845 73.7067 55.3778 73.472 55.2925 73.088C55.1645 72.704 55.1432 72.2134 55.2285 71.616C55.2712 71.0187 55.3992 70.144 55.6125 68.992C55.8258 67.84 56.1458 66.4534 56.5725 64.832C57.9378 59.3707 59.5805 54.4854 61.5005 50.176C61.6285 49.8347 61.8418 49.6 62.1405 49.472C62.4818 49.344 62.8018 49.3654 63.1005 49.536C63.4418 49.664 63.6552 49.8987 63.7405 50.24C63.8685 50.5387 63.8685 50.8374 63.7405 51.136C61.6072 55.9574 59.8578 61.312 58.4925 67.2C61.0525 62.6774 63.6978 58.5174 66.4285 54.72C67.0258 53.8667 67.6872 53.568 68.4125 53.824C68.9245 53.9947 69.2232 54.3574 69.3085 54.912C69.3938 55.424 69.4152 56.4694 69.3725 58.048C69.3298 59.3707 69.3085 60.4587 69.3085 61.312C69.3085 63.5734 69.5432 65.1734 70.0125 66.112C70.2685 65.856 70.5672 65.4294 70.9085 64.832C71.1218 64.4054 71.5912 63.4454 72.3165 61.952C74.0658 58.2827 75.3245 55.8934 76.0925 54.784C76.8605 53.632 77.6498 53.1414 78.4605 53.312C79.3565 53.5254 79.8045 54.464 79.8045 56.128C79.7618 60.3094 80.4445 62.6774 81.8525 63.232C82.7058 63.5307 84.0072 63.1467 85.7565 62.08C87.5058 60.9707 89.5752 59.008 91.9645 56.192C92.1778 55.936 92.4552 55.808 92.7965 55.808ZM111.708 55.936C112.049 55.8507 112.348 55.9147 112.604 56.128C112.902 56.2987 113.073 56.5547 113.116 56.896C113.158 57.2374 113.094 57.536 112.924 57.792C108.102 64.5334 103.708 69.312 99.7395 72.128C98.1608 73.2374 96.6035 73.792 95.0675 73.792C93.8728 73.792 92.8275 73.472 91.9315 72.832C91.4195 72.448 90.9715 71.936 90.5875 71.296C90.1608 70.656 89.7982 69.76 89.4995 68.608C89.2008 67.456 89.1582 65.9414 89.3715 64.064C89.5422 62.1867 90.0115 60.0534 90.7795 57.664V57.6C91.9742 53.7174 93.4248 50.6454 95.1315 48.384C96.8382 46.1227 98.3742 44.9707 99.7395 44.928C100.721 44.8854 101.361 45.312 101.66 46.208C102.129 47.4454 101.574 49.1947 99.9955 51.456C98.4168 53.7174 96.0915 56.1494 93.0195 58.752C92.5075 60.416 92.1448 61.952 91.9315 63.36C91.7182 64.768 91.6328 65.8987 91.6755 66.752C91.7608 67.5627 91.9102 68.288 92.1235 68.928C92.3795 69.5254 92.5928 69.952 92.7635 70.208C92.9768 70.464 93.1902 70.6774 93.4035 70.848C94.6835 71.7867 96.3262 71.5307 98.3315 70.08C102.086 67.4347 106.268 62.8694 110.876 56.384C111.089 56.128 111.366 55.9787 111.708 55.936ZM99.2915 47.616C97.7982 48.5547 96.3262 50.5814 94.8755 53.696C97.3502 51.2214 98.8222 49.1947 99.2915 47.616ZM136.733 55.872C137.074 55.744 137.394 55.7654 137.693 55.936C137.991 56.064 138.205 56.2987 138.333 56.64C138.461 56.9387 138.439 57.2374 138.269 57.536C137.117 60.0107 135.815 62.5494 134.365 65.152C132.914 67.7547 131.314 70.3787 129.565 73.024C127.858 75.712 126.151 77.888 124.445 79.552C122.738 81.2587 121.287 82.112 120.093 82.112C119.794 82.112 119.517 82.048 119.261 81.92C117.511 81.2374 116.957 78.592 117.597 73.984C118.194 69.6747 119.773 63.5734 122.333 55.68C122.29 55.68 122.247 55.7014 122.205 55.744C122.205 55.744 122.183 55.744 122.141 55.744C121.202 56.384 120.413 56.8747 119.773 57.216C119.175 57.5574 118.343 57.9414 117.277 58.368C116.253 58.7947 115.271 58.9867 114.333 58.944C113.394 58.9014 112.519 58.6027 111.709 58.048C110.087 56.896 109.255 55.296 109.213 53.248C109.17 51.2 109.938 48.96 111.517 46.528C112.498 44.992 113.671 43.648 115.037 42.496C116.445 41.344 117.639 41.088 118.621 41.728C119.218 42.0694 119.559 42.624 119.645 43.392C119.773 44.16 119.41 45.6534 118.557 47.872C117.703 50.048 116.274 52.9067 114.269 56.448C115.591 56.6187 117.767 55.7014 120.797 53.696C121.351 53.312 121.757 53.056 122.013 52.928C122.311 52.7574 122.631 52.5867 122.973 52.416C123.357 52.2454 123.677 52.1814 123.933 52.224C124.189 52.2667 124.445 52.3734 124.701 52.544C125.341 53.056 125.447 53.952 125.021 55.232C120.754 68.4587 119.069 76.48 119.965 79.296C120.05 79.4667 120.114 79.5947 120.157 79.68C120.498 79.7227 121.01 79.4454 121.693 78.848C122.418 78.2507 123.293 77.312 124.317 76.032C125.383 74.752 126.514 73.216 127.709 71.424C128.946 69.632 130.29 67.4347 131.741 64.832C133.234 62.2294 134.663 59.456 136.029 56.512C136.199 56.1707 136.434 55.9574 136.733 55.872ZM111.901 51.52C111.517 53.0134 111.602 54.208 112.157 55.104C115.271 49.6854 116.935 46.016 117.149 44.096C116.637 44.3947 116.039 44.8854 115.357 45.568C114.717 46.2507 114.034 47.1467 113.309 48.256C112.626 49.3227 112.157 50.4107 111.901 51.52ZM223.264 8.64002C223.605 8.64002 223.883 8.76802 224.096 9.02402C224.352 9.23735 224.48 9.51469 224.48 9.85602C224.48 10.0694 224.416 10.2827 224.288 10.496C224.203 10.6667 224.053 10.816 223.84 10.944C223.669 11.0294 223.477 11.072 223.264 11.072C218.357 11.1574 212.491 11.712 205.664 12.736C198.837 13.7174 192.245 14.9974 185.888 16.576C185.035 20.16 183.413 26.4747 181.024 35.52C179.147 42.688 177.76 48.1067 176.864 51.776C182.837 50.1974 188.619 48.8534 194.208 47.744C199.84 46.592 203.424 46.0587 204.96 46.144C205.301 46.1867 205.579 46.336 205.792 46.592C206.005 46.8054 206.091 47.0827 206.048 47.424C206.048 47.7654 205.92 48.064 205.664 48.32C205.451 48.5334 205.173 48.64 204.832 48.64C203.979 48.5547 202.357 48.7254 199.968 49.152C197.579 49.536 194.699 50.0907 191.328 50.816C188 51.5414 184.501 52.352 180.832 53.248C179.211 53.6747 177.653 54.08 176.16 54.464C172.064 71.0187 169.952 82.368 169.824 88.512C169.781 91.456 170.315 93.1627 171.424 93.632C172.064 93.9307 172.896 93.888 173.92 93.504C174.987 93.1627 176.224 92.5014 177.632 91.52C179.04 90.5387 180.363 89.5574 181.6 88.576C182.837 87.6374 184.331 86.3574 186.08 84.736C187.829 83.1147 189.152 81.856 190.048 80.96C190.987 80.1067 192.224 78.9334 193.76 77.44C194.656 76.544 195.317 75.8827 195.744 75.456L196.832 74.432C198.496 72.8107 199.648 71.7227 200.288 71.168C200.715 70.784 201.035 70.5067 201.248 70.336C201.461 70.1654 201.717 69.9947 202.016 69.824C202.357 69.6107 202.656 69.5254 202.912 69.568C203.168 69.568 203.403 69.6747 203.616 69.888C203.915 70.1014 204.085 70.336 204.128 70.592C204.171 70.8907 204.043 71.296 203.744 71.808C203.488 72.32 203.211 72.7894 202.912 73.216C202.613 73.6427 202.08 74.368 201.312 75.392C201.099 75.6907 200.821 75.8614 200.48 75.904C200.139 75.9467 199.84 75.8614 199.584 75.648C199.499 75.6054 199.413 75.5414 199.328 75.456C199.243 75.5414 198.987 75.7974 198.56 76.224L197.472 77.248C197.045 77.6747 196.384 78.3147 195.488 79.168C193.269 81.344 191.392 83.1574 189.856 84.608C188.32 86.0587 186.613 87.5734 184.736 89.152C182.901 90.7734 181.301 92.0534 179.936 92.992C178.571 93.9307 177.205 94.6987 175.84 95.296C174.475 95.936 173.28 96.256 172.256 96.256C171.573 96.256 170.976 96.128 170.464 95.872C168.331 94.976 167.307 92.5227 167.392 88.512C167.477 82.24 169.483 71.1467 173.408 55.232C164.789 57.664 159.925 59.4134 158.816 60.48C158.603 60.6934 158.325 60.8 157.984 60.8C157.643 60.8 157.344 60.6934 157.088 60.48C156.875 60.224 156.768 59.9254 156.768 59.584C156.768 59.2427 156.896 58.944 157.152 58.688C158.645 57.2374 164.299 55.168 174.112 52.48C175.093 48.5547 176.608 42.688 178.656 34.88C180.832 26.6027 182.347 20.736 183.2 17.28C179.275 18.304 175.819 19.3707 172.832 20.48C169.888 21.5894 167.413 22.7627 165.408 24C163.403 25.2374 162.229 26.432 161.888 27.584C161.547 28.6507 162.251 29.7814 164 30.976C164.256 31.1894 164.405 31.4667 164.448 31.808C164.533 32.1067 164.491 32.4054 164.32 32.704C164.064 33.0454 163.723 33.216 163.296 33.216C163.04 33.216 162.805 33.152 162.592 33.024C159.861 31.1467 158.837 29.0987 159.52 26.88C160.843 22.4854 168.949 18.368 183.84 14.528C184.096 13.4614 184.309 12.544 184.48 11.776C184.523 11.4347 184.693 11.1787 184.992 11.008C185.291 10.8374 185.589 10.7947 185.888 10.88C186.229 10.9227 186.485 11.0934 186.656 11.392C186.869 11.648 186.933 11.9467 186.848 12.288C186.763 12.7147 186.656 13.248 186.528 13.888C192.8 12.352 199.285 11.1147 205.984 10.176C212.683 9.19469 218.443 8.68269 223.264 8.64002ZM212.682 67.52C213.663 67.2214 214.218 67.4347 214.346 68.16C214.431 68.928 214.069 69.504 213.258 69.888C212.831 70.1014 212.341 70.208 211.786 70.208C210.89 70.1227 210.677 69.6534 211.146 68.8C211.53 68.16 212.042 67.7334 212.682 67.52Z" fill="white"/>
</svg>
